%TF.GenerationSoftware,KiCad,Pcbnew,10.0.5*%
%TF.CreationDate,2026-09-05T15:06:49-03:00*%
%TF.ProjectId,drumcore_jackboard,6472756d-636f-4726-955f-6a61636b626f,rev?*%
%TF.SameCoordinates,Original*%
%TF.FileFunction,Legend,Top*%
%TF.FilePolarity,Positive*%
%FSLAX46Y46*%
G04 Gerber Fmt 4.6, Leading zero omitted, Abs format (unit mm)*
G04 Created by KiCad (PCBNEW 10.0.5) date 2026-09-05 15:06:49*
%MOMM*%
%LPD*%
G01*
G04 APERTURE LIST*
%ADD10C,0.000000*%
%ADD11C,0.125000*%
%ADD12C,0.120000*%
%ADD13C,0.200000*%
G04 APERTURE END LIST*
D10*
G36*
X44923190Y-88923190D02*
G01*
X44000000Y-88923190D01*
X44000000Y-88000000D01*
X44923190Y-88000000D01*
X44923190Y-88923190D01*
G37*
G36*
X44923190Y-90012590D02*
G01*
X44000000Y-90012590D01*
X44000000Y-89089400D01*
X44923190Y-89089400D01*
X44923190Y-90012590D01*
G37*
G36*
X44923190Y-91101890D02*
G01*
X44000000Y-91101890D01*
X44000000Y-90178700D01*
X44923190Y-90178700D01*
X44923190Y-91101890D01*
G37*
G36*
X44923190Y-92191290D02*
G01*
X44000000Y-92191290D01*
X44000000Y-91268100D01*
X44923190Y-91268100D01*
X44923190Y-92191290D01*
G37*
G36*
X44923190Y-93280690D02*
G01*
X44000000Y-93280690D01*
X44000000Y-92357500D01*
X44923190Y-92357500D01*
X44923190Y-93280690D01*
G37*
G36*
X44923190Y-94369990D02*
G01*
X44000000Y-94369990D01*
X44000000Y-93446800D01*
X44923190Y-93446800D01*
X44923190Y-94369990D01*
G37*
G36*
X44923190Y-95459390D02*
G01*
X44000000Y-95459390D01*
X44000000Y-94536200D01*
X44923190Y-94536200D01*
X44923190Y-95459390D01*
G37*
G36*
X46012589Y-88923190D02*
G01*
X45089400Y-88923190D01*
X45089400Y-88000000D01*
X46012589Y-88000000D01*
X46012589Y-88923190D01*
G37*
G36*
X46012589Y-95459390D02*
G01*
X45089400Y-95459390D01*
X45089400Y-94536200D01*
X46012589Y-94536200D01*
X46012589Y-95459390D01*
G37*
G36*
X47101890Y-88923190D02*
G01*
X46178700Y-88923190D01*
X46178700Y-88000000D01*
X47101890Y-88000000D01*
X47101890Y-88923190D01*
G37*
G36*
X47101890Y-95459390D02*
G01*
X46178700Y-95459390D01*
X46178700Y-94536200D01*
X47101890Y-94536200D01*
X47101890Y-95459390D01*
G37*
G36*
X48191289Y-88923190D02*
G01*
X47268100Y-88923190D01*
X47268100Y-88000000D01*
X48191289Y-88000000D01*
X48191289Y-88923190D01*
G37*
G36*
X48191289Y-95459390D02*
G01*
X47268100Y-95459390D01*
X47268100Y-94536200D01*
X48191289Y-94536200D01*
X48191289Y-95459390D01*
G37*
G36*
X49280690Y-90012590D02*
G01*
X48357500Y-90012590D01*
X48357500Y-89089400D01*
X49280690Y-89089400D01*
X49280690Y-90012590D01*
G37*
G36*
X49280690Y-91101890D02*
G01*
X48357500Y-91101890D01*
X48357500Y-90178700D01*
X49280690Y-90178700D01*
X49280690Y-91101890D01*
G37*
G36*
X49280690Y-92191290D02*
G01*
X48357500Y-92191290D01*
X48357500Y-91268100D01*
X49280690Y-91268100D01*
X49280690Y-92191290D01*
G37*
G36*
X49280690Y-93280690D02*
G01*
X48357500Y-93280690D01*
X48357500Y-92357500D01*
X49280690Y-92357500D01*
X49280690Y-93280690D01*
G37*
G36*
X49280690Y-94369990D02*
G01*
X48357500Y-94369990D01*
X48357500Y-93446800D01*
X49280690Y-93446800D01*
X49280690Y-94369990D01*
G37*
G36*
X51311690Y-88923190D02*
G01*
X50388500Y-88923190D01*
X50388500Y-88000000D01*
X51311690Y-88000000D01*
X51311690Y-88923190D01*
G37*
G36*
X51311690Y-90012590D02*
G01*
X50388500Y-90012590D01*
X50388500Y-89089400D01*
X51311690Y-89089400D01*
X51311690Y-90012590D01*
G37*
G36*
X51311690Y-91101890D02*
G01*
X50388500Y-91101890D01*
X50388500Y-90178700D01*
X51311690Y-90178700D01*
X51311690Y-91101890D01*
G37*
G36*
X51311690Y-92191290D02*
G01*
X50388500Y-92191290D01*
X50388500Y-91268100D01*
X51311690Y-91268100D01*
X51311690Y-92191290D01*
G37*
G36*
X51311690Y-93280690D02*
G01*
X50388500Y-93280690D01*
X50388500Y-92357500D01*
X51311690Y-92357500D01*
X51311690Y-93280690D01*
G37*
G36*
X51311690Y-94369990D02*
G01*
X50388500Y-94369990D01*
X50388500Y-93446800D01*
X51311690Y-93446800D01*
X51311690Y-94369990D01*
G37*
G36*
X51311690Y-95459390D02*
G01*
X50388500Y-95459390D01*
X50388500Y-94536200D01*
X51311690Y-94536200D01*
X51311690Y-95459390D01*
G37*
G36*
X52400990Y-88923190D02*
G01*
X51477800Y-88923190D01*
X51477800Y-88000000D01*
X52400990Y-88000000D01*
X52400990Y-88923190D01*
G37*
G36*
X52400990Y-92191290D02*
G01*
X51477800Y-92191290D01*
X51477800Y-91268100D01*
X52400990Y-91268100D01*
X52400990Y-92191290D01*
G37*
G36*
X53490390Y-88923190D02*
G01*
X52567200Y-88923190D01*
X52567200Y-88000000D01*
X53490390Y-88000000D01*
X53490390Y-88923190D01*
G37*
G36*
X53490390Y-92191290D02*
G01*
X52567200Y-92191290D01*
X52567200Y-91268100D01*
X53490390Y-91268100D01*
X53490390Y-92191290D01*
G37*
G36*
X53490390Y-93280690D02*
G01*
X52567200Y-93280690D01*
X52567200Y-92357500D01*
X53490390Y-92357500D01*
X53490390Y-93280690D01*
G37*
G36*
X54579789Y-88923190D02*
G01*
X53656600Y-88923190D01*
X53656600Y-88000000D01*
X54579789Y-88000000D01*
X54579789Y-88923190D01*
G37*
G36*
X54579789Y-92191290D02*
G01*
X53656600Y-92191290D01*
X53656600Y-91268100D01*
X54579789Y-91268100D01*
X54579789Y-92191290D01*
G37*
G36*
X54579789Y-94369990D02*
G01*
X53656600Y-94369990D01*
X53656600Y-93446800D01*
X54579789Y-93446800D01*
X54579789Y-94369990D01*
G37*
G36*
X55669090Y-90012590D02*
G01*
X54745900Y-90012590D01*
X54745900Y-89089400D01*
X55669090Y-89089400D01*
X55669090Y-90012590D01*
G37*
G36*
X55669090Y-91101890D02*
G01*
X54745900Y-91101890D01*
X54745900Y-90178700D01*
X55669090Y-90178700D01*
X55669090Y-91101890D01*
G37*
G36*
X55669090Y-95459390D02*
G01*
X54745900Y-95459390D01*
X54745900Y-94536200D01*
X55669090Y-94536200D01*
X55669090Y-95459390D01*
G37*
G36*
X57700190Y-88923190D02*
G01*
X56777000Y-88923190D01*
X56777000Y-88000000D01*
X57700190Y-88000000D01*
X57700190Y-88923190D01*
G37*
G36*
X57700190Y-90012590D02*
G01*
X56777000Y-90012590D01*
X56777000Y-89089400D01*
X57700190Y-89089400D01*
X57700190Y-90012590D01*
G37*
G36*
X57700190Y-91101890D02*
G01*
X56777000Y-91101890D01*
X56777000Y-90178700D01*
X57700190Y-90178700D01*
X57700190Y-91101890D01*
G37*
G36*
X57700190Y-92191290D02*
G01*
X56777000Y-92191290D01*
X56777000Y-91268100D01*
X57700190Y-91268100D01*
X57700190Y-92191290D01*
G37*
G36*
X57700190Y-93280690D02*
G01*
X56777000Y-93280690D01*
X56777000Y-92357500D01*
X57700190Y-92357500D01*
X57700190Y-93280690D01*
G37*
G36*
X57700190Y-94369990D02*
G01*
X56777000Y-94369990D01*
X56777000Y-93446800D01*
X57700190Y-93446800D01*
X57700190Y-94369990D01*
G37*
G36*
X58789490Y-95459390D02*
G01*
X57866300Y-95459390D01*
X57866300Y-94536200D01*
X58789490Y-94536200D01*
X58789490Y-95459390D01*
G37*
G36*
X59878890Y-95459390D02*
G01*
X58955700Y-95459390D01*
X58955700Y-94536200D01*
X59878890Y-94536200D01*
X59878890Y-95459390D01*
G37*
G36*
X60968289Y-95459390D02*
G01*
X60045100Y-95459390D01*
X60045100Y-94536200D01*
X60968289Y-94536200D01*
X60968289Y-95459390D01*
G37*
G36*
X62057590Y-88923190D02*
G01*
X61134400Y-88923190D01*
X61134400Y-88000000D01*
X62057590Y-88000000D01*
X62057590Y-88923190D01*
G37*
G36*
X62057590Y-90012590D02*
G01*
X61134400Y-90012590D01*
X61134400Y-89089400D01*
X62057590Y-89089400D01*
X62057590Y-90012590D01*
G37*
G36*
X62057590Y-91101890D02*
G01*
X61134400Y-91101890D01*
X61134400Y-90178700D01*
X62057590Y-90178700D01*
X62057590Y-91101890D01*
G37*
G36*
X62057590Y-92191290D02*
G01*
X61134400Y-92191290D01*
X61134400Y-91268100D01*
X62057590Y-91268100D01*
X62057590Y-92191290D01*
G37*
G36*
X62057590Y-93280690D02*
G01*
X61134400Y-93280690D01*
X61134400Y-92357500D01*
X62057590Y-92357500D01*
X62057590Y-93280690D01*
G37*
G36*
X62057590Y-94369990D02*
G01*
X61134400Y-94369990D01*
X61134400Y-93446800D01*
X62057590Y-93446800D01*
X62057590Y-94369990D01*
G37*
G36*
X64088590Y-88923190D02*
G01*
X63165400Y-88923190D01*
X63165400Y-88000000D01*
X64088590Y-88000000D01*
X64088590Y-88923190D01*
G37*
G36*
X64088590Y-90012590D02*
G01*
X63165400Y-90012590D01*
X63165400Y-89089400D01*
X64088590Y-89089400D01*
X64088590Y-90012590D01*
G37*
G36*
X64088590Y-91101890D02*
G01*
X63165400Y-91101890D01*
X63165400Y-90178700D01*
X64088590Y-90178700D01*
X64088590Y-91101890D01*
G37*
G36*
X64088590Y-92191290D02*
G01*
X63165400Y-92191290D01*
X63165400Y-91268100D01*
X64088590Y-91268100D01*
X64088590Y-92191290D01*
G37*
G36*
X64088590Y-93280690D02*
G01*
X63165400Y-93280690D01*
X63165400Y-92357500D01*
X64088590Y-92357500D01*
X64088590Y-93280690D01*
G37*
G36*
X64088590Y-94369990D02*
G01*
X63165400Y-94369990D01*
X63165400Y-93446800D01*
X64088590Y-93446800D01*
X64088590Y-94369990D01*
G37*
G36*
X64088590Y-95459390D02*
G01*
X63165400Y-95459390D01*
X63165400Y-94536200D01*
X64088590Y-94536200D01*
X64088590Y-95459390D01*
G37*
G36*
X65177990Y-90012590D02*
G01*
X64254800Y-90012590D01*
X64254800Y-89089400D01*
X65177990Y-89089400D01*
X65177990Y-90012590D01*
G37*
G36*
X66267390Y-91101890D02*
G01*
X65344200Y-91101890D01*
X65344200Y-90178700D01*
X66267390Y-90178700D01*
X66267390Y-91101890D01*
G37*
G36*
X66267390Y-92191290D02*
G01*
X65344200Y-92191290D01*
X65344200Y-91268100D01*
X66267390Y-91268100D01*
X66267390Y-92191290D01*
G37*
G36*
X67356690Y-90012590D02*
G01*
X66433499Y-90012590D01*
X66433499Y-89089400D01*
X67356690Y-89089400D01*
X67356690Y-90012590D01*
G37*
G36*
X68446090Y-88923190D02*
G01*
X67522900Y-88923190D01*
X67522900Y-88000000D01*
X68446090Y-88000000D01*
X68446090Y-88923190D01*
G37*
G36*
X68446090Y-90012590D02*
G01*
X67522900Y-90012590D01*
X67522900Y-89089400D01*
X68446090Y-89089400D01*
X68446090Y-90012590D01*
G37*
G36*
X68446090Y-91101890D02*
G01*
X67522900Y-91101890D01*
X67522900Y-90178700D01*
X68446090Y-90178700D01*
X68446090Y-91101890D01*
G37*
G36*
X68446090Y-92191290D02*
G01*
X67522900Y-92191290D01*
X67522900Y-91268100D01*
X68446090Y-91268100D01*
X68446090Y-92191290D01*
G37*
G36*
X68446090Y-93280690D02*
G01*
X67522900Y-93280690D01*
X67522900Y-92357500D01*
X68446090Y-92357500D01*
X68446090Y-93280690D01*
G37*
G36*
X68446090Y-94369990D02*
G01*
X67522900Y-94369990D01*
X67522900Y-93446800D01*
X68446090Y-93446800D01*
X68446090Y-94369990D01*
G37*
G36*
X68446090Y-95459390D02*
G01*
X67522900Y-95459390D01*
X67522900Y-94536200D01*
X68446090Y-94536200D01*
X68446090Y-95459390D01*
G37*
G36*
X70477090Y-90012590D02*
G01*
X69553900Y-90012590D01*
X69553900Y-89089400D01*
X70477090Y-89089400D01*
X70477090Y-90012590D01*
G37*
G36*
X70477090Y-91101890D02*
G01*
X69553900Y-91101890D01*
X69553900Y-90178700D01*
X70477090Y-90178700D01*
X70477090Y-91101890D01*
G37*
G36*
X70477090Y-92191290D02*
G01*
X69553900Y-92191290D01*
X69553900Y-91268100D01*
X70477090Y-91268100D01*
X70477090Y-92191290D01*
G37*
G36*
X70477090Y-93280690D02*
G01*
X69553900Y-93280690D01*
X69553900Y-92357500D01*
X70477090Y-92357500D01*
X70477090Y-93280690D01*
G37*
G36*
X70477090Y-94369990D02*
G01*
X69553900Y-94369990D01*
X69553900Y-93446800D01*
X70477090Y-93446800D01*
X70477090Y-94369990D01*
G37*
G36*
X71566490Y-88923190D02*
G01*
X70643300Y-88923190D01*
X70643300Y-88000000D01*
X71566490Y-88000000D01*
X71566490Y-88923190D01*
G37*
G36*
X71566490Y-95459390D02*
G01*
X70643300Y-95459390D01*
X70643300Y-94536200D01*
X71566490Y-94536200D01*
X71566490Y-95459390D01*
G37*
G36*
X72655790Y-88923190D02*
G01*
X71732600Y-88923190D01*
X71732600Y-88000000D01*
X72655790Y-88000000D01*
X72655790Y-88923190D01*
G37*
G36*
X72655790Y-95459390D02*
G01*
X71732600Y-95459390D01*
X71732600Y-94536200D01*
X72655790Y-94536200D01*
X72655790Y-95459390D01*
G37*
G36*
X73745190Y-88923190D02*
G01*
X72822000Y-88923190D01*
X72822000Y-88000000D01*
X73745190Y-88000000D01*
X73745190Y-88923190D01*
G37*
G36*
X73745190Y-95459390D02*
G01*
X72822000Y-95459390D01*
X72822000Y-94536200D01*
X73745190Y-94536200D01*
X73745190Y-95459390D01*
G37*
G36*
X74834590Y-90012590D02*
G01*
X73911400Y-90012590D01*
X73911400Y-89089400D01*
X74834590Y-89089400D01*
X74834590Y-90012590D01*
G37*
G36*
X74834590Y-94369990D02*
G01*
X73911400Y-94369990D01*
X73911400Y-93446800D01*
X74834590Y-93446800D01*
X74834590Y-94369990D01*
G37*
G36*
X76865590Y-90012590D02*
G01*
X75942400Y-90012590D01*
X75942400Y-89089400D01*
X76865590Y-89089400D01*
X76865590Y-90012590D01*
G37*
G36*
X76865590Y-91101890D02*
G01*
X75942400Y-91101890D01*
X75942400Y-90178700D01*
X76865590Y-90178700D01*
X76865590Y-91101890D01*
G37*
G36*
X76865590Y-92191290D02*
G01*
X75942400Y-92191290D01*
X75942400Y-91268100D01*
X76865590Y-91268100D01*
X76865590Y-92191290D01*
G37*
G36*
X76865590Y-93280690D02*
G01*
X75942400Y-93280690D01*
X75942400Y-92357500D01*
X76865590Y-92357500D01*
X76865590Y-93280690D01*
G37*
G36*
X76865590Y-94369990D02*
G01*
X75942400Y-94369990D01*
X75942400Y-93446800D01*
X76865590Y-93446800D01*
X76865590Y-94369990D01*
G37*
G36*
X77954990Y-88923190D02*
G01*
X77031800Y-88923190D01*
X77031800Y-88000000D01*
X77954990Y-88000000D01*
X77954990Y-88923190D01*
G37*
G36*
X77954990Y-95459390D02*
G01*
X77031800Y-95459390D01*
X77031800Y-94536200D01*
X77954990Y-94536200D01*
X77954990Y-95459390D01*
G37*
G36*
X79044290Y-88923190D02*
G01*
X78121100Y-88923190D01*
X78121100Y-88000000D01*
X79044290Y-88000000D01*
X79044290Y-88923190D01*
G37*
G36*
X79044290Y-95459390D02*
G01*
X78121100Y-95459390D01*
X78121100Y-94536200D01*
X79044290Y-94536200D01*
X79044290Y-95459390D01*
G37*
G36*
X80133690Y-88923190D02*
G01*
X79210500Y-88923190D01*
X79210500Y-88000000D01*
X80133690Y-88000000D01*
X80133690Y-88923190D01*
G37*
G36*
X80133690Y-95459390D02*
G01*
X79210500Y-95459390D01*
X79210500Y-94536200D01*
X80133690Y-94536200D01*
X80133690Y-95459390D01*
G37*
G36*
X81223090Y-90012590D02*
G01*
X80299900Y-90012590D01*
X80299900Y-89089400D01*
X81223090Y-89089400D01*
X81223090Y-90012590D01*
G37*
G36*
X81223090Y-91101890D02*
G01*
X80299900Y-91101890D01*
X80299900Y-90178700D01*
X81223090Y-90178700D01*
X81223090Y-91101890D01*
G37*
G36*
X81223090Y-92191290D02*
G01*
X80299900Y-92191290D01*
X80299900Y-91268100D01*
X81223090Y-91268100D01*
X81223090Y-92191290D01*
G37*
G36*
X81223090Y-93280690D02*
G01*
X80299900Y-93280690D01*
X80299900Y-92357500D01*
X81223090Y-92357500D01*
X81223090Y-93280690D01*
G37*
G36*
X81223090Y-94369990D02*
G01*
X80299900Y-94369990D01*
X80299900Y-93446800D01*
X81223090Y-93446800D01*
X81223090Y-94369990D01*
G37*
G36*
X83254090Y-88923190D02*
G01*
X82330900Y-88923190D01*
X82330900Y-88000000D01*
X83254090Y-88000000D01*
X83254090Y-88923190D01*
G37*
G36*
X83254090Y-90012590D02*
G01*
X82330900Y-90012590D01*
X82330900Y-89089400D01*
X83254090Y-89089400D01*
X83254090Y-90012590D01*
G37*
G36*
X83254090Y-91101890D02*
G01*
X82330900Y-91101890D01*
X82330900Y-90178700D01*
X83254090Y-90178700D01*
X83254090Y-91101890D01*
G37*
G36*
X83254090Y-92191290D02*
G01*
X82330900Y-92191290D01*
X82330900Y-91268100D01*
X83254090Y-91268100D01*
X83254090Y-92191290D01*
G37*
G36*
X83254090Y-93280690D02*
G01*
X82330900Y-93280690D01*
X82330900Y-92357500D01*
X83254090Y-92357500D01*
X83254090Y-93280690D01*
G37*
G36*
X83254090Y-94369990D02*
G01*
X82330900Y-94369990D01*
X82330900Y-93446800D01*
X83254090Y-93446800D01*
X83254090Y-94369990D01*
G37*
G36*
X83254090Y-95459390D02*
G01*
X82330900Y-95459390D01*
X82330900Y-94536200D01*
X83254090Y-94536200D01*
X83254090Y-95459390D01*
G37*
G36*
X84343390Y-88923190D02*
G01*
X83420200Y-88923190D01*
X83420200Y-88000000D01*
X84343390Y-88000000D01*
X84343390Y-88923190D01*
G37*
G36*
X84343390Y-92191290D02*
G01*
X83420200Y-92191290D01*
X83420200Y-91268100D01*
X84343390Y-91268100D01*
X84343390Y-92191290D01*
G37*
G36*
X85432790Y-88923190D02*
G01*
X84509600Y-88923190D01*
X84509600Y-88000000D01*
X85432790Y-88000000D01*
X85432790Y-88923190D01*
G37*
G36*
X85432790Y-92191290D02*
G01*
X84509600Y-92191290D01*
X84509600Y-91268100D01*
X85432790Y-91268100D01*
X85432790Y-92191290D01*
G37*
G36*
X85432790Y-93280690D02*
G01*
X84509600Y-93280690D01*
X84509600Y-92357500D01*
X85432790Y-92357500D01*
X85432790Y-93280690D01*
G37*
G36*
X86522190Y-88923190D02*
G01*
X85599000Y-88923190D01*
X85599000Y-88000000D01*
X86522190Y-88000000D01*
X86522190Y-88923190D01*
G37*
G36*
X86522190Y-92191290D02*
G01*
X85599000Y-92191290D01*
X85599000Y-91268100D01*
X86522190Y-91268100D01*
X86522190Y-92191290D01*
G37*
G36*
X86522190Y-94369990D02*
G01*
X85599000Y-94369990D01*
X85599000Y-93446800D01*
X86522190Y-93446800D01*
X86522190Y-94369990D01*
G37*
G36*
X87611490Y-90012590D02*
G01*
X86688300Y-90012590D01*
X86688300Y-89089400D01*
X87611490Y-89089400D01*
X87611490Y-90012590D01*
G37*
G36*
X87611490Y-91101890D02*
G01*
X86688300Y-91101890D01*
X86688300Y-90178700D01*
X87611490Y-90178700D01*
X87611490Y-91101890D01*
G37*
G36*
X87611490Y-95459390D02*
G01*
X86688300Y-95459390D01*
X86688300Y-94536200D01*
X87611490Y-94536200D01*
X87611490Y-95459390D01*
G37*
G36*
X89642590Y-88923190D02*
G01*
X88719400Y-88923190D01*
X88719400Y-88000000D01*
X89642590Y-88000000D01*
X89642590Y-88923190D01*
G37*
G36*
X89642590Y-90012590D02*
G01*
X88719400Y-90012590D01*
X88719400Y-89089400D01*
X89642590Y-89089400D01*
X89642590Y-90012590D01*
G37*
G36*
X89642590Y-91101890D02*
G01*
X88719400Y-91101890D01*
X88719400Y-90178700D01*
X89642590Y-90178700D01*
X89642590Y-91101890D01*
G37*
G36*
X89642590Y-92191290D02*
G01*
X88719400Y-92191290D01*
X88719400Y-91268100D01*
X89642590Y-91268100D01*
X89642590Y-92191290D01*
G37*
G36*
X89642590Y-93280690D02*
G01*
X88719400Y-93280690D01*
X88719400Y-92357500D01*
X89642590Y-92357500D01*
X89642590Y-93280690D01*
G37*
G36*
X89642590Y-94369990D02*
G01*
X88719400Y-94369990D01*
X88719400Y-93446800D01*
X89642590Y-93446800D01*
X89642590Y-94369990D01*
G37*
G36*
X89642590Y-95459390D02*
G01*
X88719400Y-95459390D01*
X88719400Y-94536200D01*
X89642590Y-94536200D01*
X89642590Y-95459390D01*
G37*
G36*
X90731890Y-88923190D02*
G01*
X89808700Y-88923190D01*
X89808700Y-88000000D01*
X90731890Y-88000000D01*
X90731890Y-88923190D01*
G37*
G36*
X90731890Y-92191290D02*
G01*
X89808700Y-92191290D01*
X89808700Y-91268100D01*
X90731890Y-91268100D01*
X90731890Y-92191290D01*
G37*
G36*
X90731890Y-95459390D02*
G01*
X89808700Y-95459390D01*
X89808700Y-94536200D01*
X90731890Y-94536200D01*
X90731890Y-95459390D01*
G37*
G36*
X91821290Y-88923190D02*
G01*
X90898100Y-88923190D01*
X90898100Y-88000000D01*
X91821290Y-88000000D01*
X91821290Y-88923190D01*
G37*
G36*
X91821290Y-92191290D02*
G01*
X90898100Y-92191290D01*
X90898100Y-91268100D01*
X91821290Y-91268100D01*
X91821290Y-92191290D01*
G37*
G36*
X91821290Y-95459390D02*
G01*
X90898100Y-95459390D01*
X90898100Y-94536200D01*
X91821290Y-94536200D01*
X91821290Y-95459390D01*
G37*
G36*
X92910590Y-88923190D02*
G01*
X91987400Y-88923190D01*
X91987400Y-88000000D01*
X92910590Y-88000000D01*
X92910590Y-88923190D01*
G37*
G36*
X92910590Y-92191290D02*
G01*
X91987400Y-92191290D01*
X91987400Y-91268100D01*
X92910590Y-91268100D01*
X92910590Y-92191290D01*
G37*
G36*
X92910590Y-95459390D02*
G01*
X91987400Y-95459390D01*
X91987400Y-94536200D01*
X92910590Y-94536200D01*
X92910590Y-95459390D01*
G37*
G36*
X93999990Y-88923190D02*
G01*
X93076800Y-88923190D01*
X93076800Y-88000000D01*
X93999990Y-88000000D01*
X93999990Y-88923190D01*
G37*
G36*
X93999990Y-95459390D02*
G01*
X93076800Y-95459390D01*
X93076800Y-94536200D01*
X93999990Y-94536200D01*
X93999990Y-95459390D01*
G37*
D11*
X121043880Y-126357142D02*
X121520071Y-126023809D01*
X121043880Y-125785714D02*
X122043880Y-125785714D01*
X122043880Y-125785714D02*
X122043880Y-126166666D01*
X122043880Y-126166666D02*
X121996261Y-126261904D01*
X121996261Y-126261904D02*
X121948642Y-126309523D01*
X121948642Y-126309523D02*
X121853404Y-126357142D01*
X121853404Y-126357142D02*
X121710547Y-126357142D01*
X121710547Y-126357142D02*
X121615309Y-126309523D01*
X121615309Y-126309523D02*
X121567690Y-126261904D01*
X121567690Y-126261904D02*
X121520071Y-126166666D01*
X121520071Y-126166666D02*
X121520071Y-125785714D01*
X121948642Y-126738095D02*
X121996261Y-126785714D01*
X121996261Y-126785714D02*
X122043880Y-126880952D01*
X122043880Y-126880952D02*
X122043880Y-127119047D01*
X122043880Y-127119047D02*
X121996261Y-127214285D01*
X121996261Y-127214285D02*
X121948642Y-127261904D01*
X121948642Y-127261904D02*
X121853404Y-127309523D01*
X121853404Y-127309523D02*
X121758166Y-127309523D01*
X121758166Y-127309523D02*
X121615309Y-127261904D01*
X121615309Y-127261904D02*
X121043880Y-126690476D01*
X121043880Y-126690476D02*
X121043880Y-127309523D01*
X122043880Y-128166666D02*
X122043880Y-127976190D01*
X122043880Y-127976190D02*
X121996261Y-127880952D01*
X121996261Y-127880952D02*
X121948642Y-127833333D01*
X121948642Y-127833333D02*
X121805785Y-127738095D01*
X121805785Y-127738095D02*
X121615309Y-127690476D01*
X121615309Y-127690476D02*
X121234357Y-127690476D01*
X121234357Y-127690476D02*
X121139119Y-127738095D01*
X121139119Y-127738095D02*
X121091500Y-127785714D01*
X121091500Y-127785714D02*
X121043880Y-127880952D01*
X121043880Y-127880952D02*
X121043880Y-128071428D01*
X121043880Y-128071428D02*
X121091500Y-128166666D01*
X121091500Y-128166666D02*
X121139119Y-128214285D01*
X121139119Y-128214285D02*
X121234357Y-128261904D01*
X121234357Y-128261904D02*
X121472452Y-128261904D01*
X121472452Y-128261904D02*
X121567690Y-128214285D01*
X121567690Y-128214285D02*
X121615309Y-128166666D01*
X121615309Y-128166666D02*
X121662928Y-128071428D01*
X121662928Y-128071428D02*
X121662928Y-127880952D01*
X121662928Y-127880952D02*
X121615309Y-127785714D01*
X121615309Y-127785714D02*
X121567690Y-127738095D01*
X121567690Y-127738095D02*
X121472452Y-127690476D01*
X220761905Y-112456119D02*
X221380952Y-112456119D01*
X221380952Y-112456119D02*
X221047619Y-112837071D01*
X221047619Y-112837071D02*
X221190476Y-112837071D01*
X221190476Y-112837071D02*
X221285714Y-112884690D01*
X221285714Y-112884690D02*
X221333333Y-112932309D01*
X221333333Y-112932309D02*
X221380952Y-113027547D01*
X221380952Y-113027547D02*
X221380952Y-113265642D01*
X221380952Y-113265642D02*
X221333333Y-113360880D01*
X221333333Y-113360880D02*
X221285714Y-113408500D01*
X221285714Y-113408500D02*
X221190476Y-113456119D01*
X221190476Y-113456119D02*
X220904762Y-113456119D01*
X220904762Y-113456119D02*
X220809524Y-113408500D01*
X220809524Y-113408500D02*
X220761905Y-113360880D01*
X221666667Y-112456119D02*
X222000000Y-113456119D01*
X222000000Y-113456119D02*
X222333333Y-112456119D01*
X222571429Y-112456119D02*
X223190476Y-112456119D01*
X223190476Y-112456119D02*
X222857143Y-112837071D01*
X222857143Y-112837071D02*
X223000000Y-112837071D01*
X223000000Y-112837071D02*
X223095238Y-112884690D01*
X223095238Y-112884690D02*
X223142857Y-112932309D01*
X223142857Y-112932309D02*
X223190476Y-113027547D01*
X223190476Y-113027547D02*
X223190476Y-113265642D01*
X223190476Y-113265642D02*
X223142857Y-113360880D01*
X223142857Y-113360880D02*
X223095238Y-113408500D01*
X223095238Y-113408500D02*
X223000000Y-113456119D01*
X223000000Y-113456119D02*
X222714286Y-113456119D01*
X222714286Y-113456119D02*
X222619048Y-113408500D01*
X222619048Y-113408500D02*
X222571429Y-113360880D01*
X211043880Y-126357142D02*
X211520071Y-126023809D01*
X211043880Y-125785714D02*
X212043880Y-125785714D01*
X212043880Y-125785714D02*
X212043880Y-126166666D01*
X212043880Y-126166666D02*
X211996261Y-126261904D01*
X211996261Y-126261904D02*
X211948642Y-126309523D01*
X211948642Y-126309523D02*
X211853404Y-126357142D01*
X211853404Y-126357142D02*
X211710547Y-126357142D01*
X211710547Y-126357142D02*
X211615309Y-126309523D01*
X211615309Y-126309523D02*
X211567690Y-126261904D01*
X211567690Y-126261904D02*
X211520071Y-126166666D01*
X211520071Y-126166666D02*
X211520071Y-125785714D01*
X211043880Y-127309523D02*
X211043880Y-126738095D01*
X211043880Y-127023809D02*
X212043880Y-127023809D01*
X212043880Y-127023809D02*
X211901023Y-126928571D01*
X211901023Y-126928571D02*
X211805785Y-126833333D01*
X211805785Y-126833333D02*
X211758166Y-126738095D01*
X211615309Y-127880952D02*
X211662928Y-127785714D01*
X211662928Y-127785714D02*
X211710547Y-127738095D01*
X211710547Y-127738095D02*
X211805785Y-127690476D01*
X211805785Y-127690476D02*
X211853404Y-127690476D01*
X211853404Y-127690476D02*
X211948642Y-127738095D01*
X211948642Y-127738095D02*
X211996261Y-127785714D01*
X211996261Y-127785714D02*
X212043880Y-127880952D01*
X212043880Y-127880952D02*
X212043880Y-128071428D01*
X212043880Y-128071428D02*
X211996261Y-128166666D01*
X211996261Y-128166666D02*
X211948642Y-128214285D01*
X211948642Y-128214285D02*
X211853404Y-128261904D01*
X211853404Y-128261904D02*
X211805785Y-128261904D01*
X211805785Y-128261904D02*
X211710547Y-128214285D01*
X211710547Y-128214285D02*
X211662928Y-128166666D01*
X211662928Y-128166666D02*
X211615309Y-128071428D01*
X211615309Y-128071428D02*
X211615309Y-127880952D01*
X211615309Y-127880952D02*
X211567690Y-127785714D01*
X211567690Y-127785714D02*
X211520071Y-127738095D01*
X211520071Y-127738095D02*
X211424833Y-127690476D01*
X211424833Y-127690476D02*
X211234357Y-127690476D01*
X211234357Y-127690476D02*
X211139119Y-127738095D01*
X211139119Y-127738095D02*
X211091500Y-127785714D01*
X211091500Y-127785714D02*
X211043880Y-127880952D01*
X211043880Y-127880952D02*
X211043880Y-128071428D01*
X211043880Y-128071428D02*
X211091500Y-128166666D01*
X211091500Y-128166666D02*
X211139119Y-128214285D01*
X211139119Y-128214285D02*
X211234357Y-128261904D01*
X211234357Y-128261904D02*
X211424833Y-128261904D01*
X211424833Y-128261904D02*
X211520071Y-128214285D01*
X211520071Y-128214285D02*
X211567690Y-128166666D01*
X211567690Y-128166666D02*
X211615309Y-128071428D01*
X106043880Y-116357142D02*
X106520071Y-116023809D01*
X106043880Y-115785714D02*
X107043880Y-115785714D01*
X107043880Y-115785714D02*
X107043880Y-116166666D01*
X107043880Y-116166666D02*
X106996261Y-116261904D01*
X106996261Y-116261904D02*
X106948642Y-116309523D01*
X106948642Y-116309523D02*
X106853404Y-116357142D01*
X106853404Y-116357142D02*
X106710547Y-116357142D01*
X106710547Y-116357142D02*
X106615309Y-116309523D01*
X106615309Y-116309523D02*
X106567690Y-116261904D01*
X106567690Y-116261904D02*
X106520071Y-116166666D01*
X106520071Y-116166666D02*
X106520071Y-115785714D01*
X106043880Y-117309523D02*
X106043880Y-116738095D01*
X106043880Y-117023809D02*
X107043880Y-117023809D01*
X107043880Y-117023809D02*
X106901023Y-116928571D01*
X106901023Y-116928571D02*
X106805785Y-116833333D01*
X106805785Y-116833333D02*
X106758166Y-116738095D01*
X106043880Y-118261904D02*
X106043880Y-117690476D01*
X106043880Y-117976190D02*
X107043880Y-117976190D01*
X107043880Y-117976190D02*
X106901023Y-117880952D01*
X106901023Y-117880952D02*
X106805785Y-117785714D01*
X106805785Y-117785714D02*
X106758166Y-117690476D01*
X50043880Y-124785714D02*
X51043880Y-124785714D01*
X51043880Y-124785714D02*
X51043880Y-125023809D01*
X51043880Y-125023809D02*
X50996261Y-125166666D01*
X50996261Y-125166666D02*
X50901023Y-125261904D01*
X50901023Y-125261904D02*
X50805785Y-125309523D01*
X50805785Y-125309523D02*
X50615309Y-125357142D01*
X50615309Y-125357142D02*
X50472452Y-125357142D01*
X50472452Y-125357142D02*
X50281976Y-125309523D01*
X50281976Y-125309523D02*
X50186738Y-125261904D01*
X50186738Y-125261904D02*
X50091500Y-125166666D01*
X50091500Y-125166666D02*
X50043880Y-125023809D01*
X50043880Y-125023809D02*
X50043880Y-124785714D01*
X50043880Y-126309523D02*
X50043880Y-125738095D01*
X50043880Y-126023809D02*
X51043880Y-126023809D01*
X51043880Y-126023809D02*
X50901023Y-125928571D01*
X50901023Y-125928571D02*
X50805785Y-125833333D01*
X50805785Y-125833333D02*
X50758166Y-125738095D01*
X51043880Y-127166666D02*
X51043880Y-126976190D01*
X51043880Y-126976190D02*
X50996261Y-126880952D01*
X50996261Y-126880952D02*
X50948642Y-126833333D01*
X50948642Y-126833333D02*
X50805785Y-126738095D01*
X50805785Y-126738095D02*
X50615309Y-126690476D01*
X50615309Y-126690476D02*
X50234357Y-126690476D01*
X50234357Y-126690476D02*
X50139119Y-126738095D01*
X50139119Y-126738095D02*
X50091500Y-126785714D01*
X50091500Y-126785714D02*
X50043880Y-126880952D01*
X50043880Y-126880952D02*
X50043880Y-127071428D01*
X50043880Y-127071428D02*
X50091500Y-127166666D01*
X50091500Y-127166666D02*
X50139119Y-127214285D01*
X50139119Y-127214285D02*
X50234357Y-127261904D01*
X50234357Y-127261904D02*
X50472452Y-127261904D01*
X50472452Y-127261904D02*
X50567690Y-127214285D01*
X50567690Y-127214285D02*
X50615309Y-127166666D01*
X50615309Y-127166666D02*
X50662928Y-127071428D01*
X50662928Y-127071428D02*
X50662928Y-126880952D01*
X50662928Y-126880952D02*
X50615309Y-126785714D01*
X50615309Y-126785714D02*
X50567690Y-126738095D01*
X50567690Y-126738095D02*
X50472452Y-126690476D01*
X160761905Y-118956119D02*
X160761905Y-117956119D01*
X160761905Y-117956119D02*
X161000000Y-117956119D01*
X161000000Y-117956119D02*
X161142857Y-118003738D01*
X161142857Y-118003738D02*
X161238095Y-118098976D01*
X161238095Y-118098976D02*
X161285714Y-118194214D01*
X161285714Y-118194214D02*
X161333333Y-118384690D01*
X161333333Y-118384690D02*
X161333333Y-118527547D01*
X161333333Y-118527547D02*
X161285714Y-118718023D01*
X161285714Y-118718023D02*
X161238095Y-118813261D01*
X161238095Y-118813261D02*
X161142857Y-118908500D01*
X161142857Y-118908500D02*
X161000000Y-118956119D01*
X161000000Y-118956119D02*
X160761905Y-118956119D01*
X162238095Y-117956119D02*
X161761905Y-117956119D01*
X161761905Y-117956119D02*
X161714286Y-118432309D01*
X161714286Y-118432309D02*
X161761905Y-118384690D01*
X161761905Y-118384690D02*
X161857143Y-118337071D01*
X161857143Y-118337071D02*
X162095238Y-118337071D01*
X162095238Y-118337071D02*
X162190476Y-118384690D01*
X162190476Y-118384690D02*
X162238095Y-118432309D01*
X162238095Y-118432309D02*
X162285714Y-118527547D01*
X162285714Y-118527547D02*
X162285714Y-118765642D01*
X162285714Y-118765642D02*
X162238095Y-118860880D01*
X162238095Y-118860880D02*
X162190476Y-118908500D01*
X162190476Y-118908500D02*
X162095238Y-118956119D01*
X162095238Y-118956119D02*
X161857143Y-118956119D01*
X161857143Y-118956119D02*
X161761905Y-118908500D01*
X161761905Y-118908500D02*
X161714286Y-118860880D01*
X184357142Y-115456119D02*
X184023809Y-114979928D01*
X183785714Y-115456119D02*
X183785714Y-114456119D01*
X183785714Y-114456119D02*
X184166666Y-114456119D01*
X184166666Y-114456119D02*
X184261904Y-114503738D01*
X184261904Y-114503738D02*
X184309523Y-114551357D01*
X184309523Y-114551357D02*
X184357142Y-114646595D01*
X184357142Y-114646595D02*
X184357142Y-114789452D01*
X184357142Y-114789452D02*
X184309523Y-114884690D01*
X184309523Y-114884690D02*
X184261904Y-114932309D01*
X184261904Y-114932309D02*
X184166666Y-114979928D01*
X184166666Y-114979928D02*
X183785714Y-114979928D01*
X185309523Y-115456119D02*
X184738095Y-115456119D01*
X185023809Y-115456119D02*
X185023809Y-114456119D01*
X185023809Y-114456119D02*
X184928571Y-114598976D01*
X184928571Y-114598976D02*
X184833333Y-114694214D01*
X184833333Y-114694214D02*
X184738095Y-114741833D01*
X185785714Y-115456119D02*
X185976190Y-115456119D01*
X185976190Y-115456119D02*
X186071428Y-115408500D01*
X186071428Y-115408500D02*
X186119047Y-115360880D01*
X186119047Y-115360880D02*
X186214285Y-115218023D01*
X186214285Y-115218023D02*
X186261904Y-115027547D01*
X186261904Y-115027547D02*
X186261904Y-114646595D01*
X186261904Y-114646595D02*
X186214285Y-114551357D01*
X186214285Y-114551357D02*
X186166666Y-114503738D01*
X186166666Y-114503738D02*
X186071428Y-114456119D01*
X186071428Y-114456119D02*
X185880952Y-114456119D01*
X185880952Y-114456119D02*
X185785714Y-114503738D01*
X185785714Y-114503738D02*
X185738095Y-114551357D01*
X185738095Y-114551357D02*
X185690476Y-114646595D01*
X185690476Y-114646595D02*
X185690476Y-114884690D01*
X185690476Y-114884690D02*
X185738095Y-114979928D01*
X185738095Y-114979928D02*
X185785714Y-115027547D01*
X185785714Y-115027547D02*
X185880952Y-115075166D01*
X185880952Y-115075166D02*
X186071428Y-115075166D01*
X186071428Y-115075166D02*
X186166666Y-115027547D01*
X186166666Y-115027547D02*
X186214285Y-114979928D01*
X186214285Y-114979928D02*
X186261904Y-114884690D01*
X205261905Y-118956119D02*
X205261905Y-117956119D01*
X205261905Y-117956119D02*
X205500000Y-117956119D01*
X205500000Y-117956119D02*
X205642857Y-118003738D01*
X205642857Y-118003738D02*
X205738095Y-118098976D01*
X205738095Y-118098976D02*
X205785714Y-118194214D01*
X205785714Y-118194214D02*
X205833333Y-118384690D01*
X205833333Y-118384690D02*
X205833333Y-118527547D01*
X205833333Y-118527547D02*
X205785714Y-118718023D01*
X205785714Y-118718023D02*
X205738095Y-118813261D01*
X205738095Y-118813261D02*
X205642857Y-118908500D01*
X205642857Y-118908500D02*
X205500000Y-118956119D01*
X205500000Y-118956119D02*
X205261905Y-118956119D01*
X206785714Y-118956119D02*
X206214286Y-118956119D01*
X206500000Y-118956119D02*
X206500000Y-117956119D01*
X206500000Y-117956119D02*
X206404762Y-118098976D01*
X206404762Y-118098976D02*
X206309524Y-118194214D01*
X206309524Y-118194214D02*
X206214286Y-118241833D01*
X185043880Y-125071904D02*
X186043880Y-125071904D01*
X186043880Y-125071904D02*
X186043880Y-125309999D01*
X186043880Y-125309999D02*
X185996261Y-125452856D01*
X185996261Y-125452856D02*
X185901023Y-125548094D01*
X185901023Y-125548094D02*
X185805785Y-125595713D01*
X185805785Y-125595713D02*
X185615309Y-125643332D01*
X185615309Y-125643332D02*
X185472452Y-125643332D01*
X185472452Y-125643332D02*
X185281976Y-125595713D01*
X185281976Y-125595713D02*
X185186738Y-125548094D01*
X185186738Y-125548094D02*
X185091500Y-125452856D01*
X185091500Y-125452856D02*
X185043880Y-125309999D01*
X185043880Y-125309999D02*
X185043880Y-125071904D01*
X185710547Y-126500475D02*
X185043880Y-126500475D01*
X186091500Y-126262380D02*
X185377214Y-126024285D01*
X185377214Y-126024285D02*
X185377214Y-126643332D01*
X162543880Y-125261905D02*
X163543880Y-125261905D01*
X163543880Y-125261905D02*
X163543880Y-125500000D01*
X163543880Y-125500000D02*
X163496261Y-125642857D01*
X163496261Y-125642857D02*
X163401023Y-125738095D01*
X163401023Y-125738095D02*
X163305785Y-125785714D01*
X163305785Y-125785714D02*
X163115309Y-125833333D01*
X163115309Y-125833333D02*
X162972452Y-125833333D01*
X162972452Y-125833333D02*
X162781976Y-125785714D01*
X162781976Y-125785714D02*
X162686738Y-125738095D01*
X162686738Y-125738095D02*
X162591500Y-125642857D01*
X162591500Y-125642857D02*
X162543880Y-125500000D01*
X162543880Y-125500000D02*
X162543880Y-125261905D01*
X163543880Y-126690476D02*
X163543880Y-126500000D01*
X163543880Y-126500000D02*
X163496261Y-126404762D01*
X163496261Y-126404762D02*
X163448642Y-126357143D01*
X163448642Y-126357143D02*
X163305785Y-126261905D01*
X163305785Y-126261905D02*
X163115309Y-126214286D01*
X163115309Y-126214286D02*
X162734357Y-126214286D01*
X162734357Y-126214286D02*
X162639119Y-126261905D01*
X162639119Y-126261905D02*
X162591500Y-126309524D01*
X162591500Y-126309524D02*
X162543880Y-126404762D01*
X162543880Y-126404762D02*
X162543880Y-126595238D01*
X162543880Y-126595238D02*
X162591500Y-126690476D01*
X162591500Y-126690476D02*
X162639119Y-126738095D01*
X162639119Y-126738095D02*
X162734357Y-126785714D01*
X162734357Y-126785714D02*
X162972452Y-126785714D01*
X162972452Y-126785714D02*
X163067690Y-126738095D01*
X163067690Y-126738095D02*
X163115309Y-126690476D01*
X163115309Y-126690476D02*
X163162928Y-126595238D01*
X163162928Y-126595238D02*
X163162928Y-126404762D01*
X163162928Y-126404762D02*
X163115309Y-126309524D01*
X163115309Y-126309524D02*
X163067690Y-126261905D01*
X163067690Y-126261905D02*
X162972452Y-126214286D01*
X79543880Y-126357142D02*
X80020071Y-126023809D01*
X79543880Y-125785714D02*
X80543880Y-125785714D01*
X80543880Y-125785714D02*
X80543880Y-126166666D01*
X80543880Y-126166666D02*
X80496261Y-126261904D01*
X80496261Y-126261904D02*
X80448642Y-126309523D01*
X80448642Y-126309523D02*
X80353404Y-126357142D01*
X80353404Y-126357142D02*
X80210547Y-126357142D01*
X80210547Y-126357142D02*
X80115309Y-126309523D01*
X80115309Y-126309523D02*
X80067690Y-126261904D01*
X80067690Y-126261904D02*
X80020071Y-126166666D01*
X80020071Y-126166666D02*
X80020071Y-125785714D01*
X79543880Y-127309523D02*
X79543880Y-126738095D01*
X79543880Y-127023809D02*
X80543880Y-127023809D01*
X80543880Y-127023809D02*
X80401023Y-126928571D01*
X80401023Y-126928571D02*
X80305785Y-126833333D01*
X80305785Y-126833333D02*
X80258166Y-126738095D01*
X80210547Y-128166666D02*
X79543880Y-128166666D01*
X80591500Y-127928571D02*
X79877214Y-127690476D01*
X79877214Y-127690476D02*
X79877214Y-128309523D01*
X206857142Y-115456119D02*
X206523809Y-114979928D01*
X206285714Y-115456119D02*
X206285714Y-114456119D01*
X206285714Y-114456119D02*
X206666666Y-114456119D01*
X206666666Y-114456119D02*
X206761904Y-114503738D01*
X206761904Y-114503738D02*
X206809523Y-114551357D01*
X206809523Y-114551357D02*
X206857142Y-114646595D01*
X206857142Y-114646595D02*
X206857142Y-114789452D01*
X206857142Y-114789452D02*
X206809523Y-114884690D01*
X206809523Y-114884690D02*
X206761904Y-114932309D01*
X206761904Y-114932309D02*
X206666666Y-114979928D01*
X206666666Y-114979928D02*
X206285714Y-114979928D01*
X207809523Y-115456119D02*
X207238095Y-115456119D01*
X207523809Y-115456119D02*
X207523809Y-114456119D01*
X207523809Y-114456119D02*
X207428571Y-114598976D01*
X207428571Y-114598976D02*
X207333333Y-114694214D01*
X207333333Y-114694214D02*
X207238095Y-114741833D01*
X208142857Y-114456119D02*
X208809523Y-114456119D01*
X208809523Y-114456119D02*
X208380952Y-115456119D01*
X76043880Y-126357142D02*
X76520071Y-126023809D01*
X76043880Y-125785714D02*
X77043880Y-125785714D01*
X77043880Y-125785714D02*
X77043880Y-126166666D01*
X77043880Y-126166666D02*
X76996261Y-126261904D01*
X76996261Y-126261904D02*
X76948642Y-126309523D01*
X76948642Y-126309523D02*
X76853404Y-126357142D01*
X76853404Y-126357142D02*
X76710547Y-126357142D01*
X76710547Y-126357142D02*
X76615309Y-126309523D01*
X76615309Y-126309523D02*
X76567690Y-126261904D01*
X76567690Y-126261904D02*
X76520071Y-126166666D01*
X76520071Y-126166666D02*
X76520071Y-125785714D01*
X77043880Y-126690476D02*
X77043880Y-127309523D01*
X77043880Y-127309523D02*
X76662928Y-126976190D01*
X76662928Y-126976190D02*
X76662928Y-127119047D01*
X76662928Y-127119047D02*
X76615309Y-127214285D01*
X76615309Y-127214285D02*
X76567690Y-127261904D01*
X76567690Y-127261904D02*
X76472452Y-127309523D01*
X76472452Y-127309523D02*
X76234357Y-127309523D01*
X76234357Y-127309523D02*
X76139119Y-127261904D01*
X76139119Y-127261904D02*
X76091500Y-127214285D01*
X76091500Y-127214285D02*
X76043880Y-127119047D01*
X76043880Y-127119047D02*
X76043880Y-126833333D01*
X76043880Y-126833333D02*
X76091500Y-126738095D01*
X76091500Y-126738095D02*
X76139119Y-126690476D01*
X77043880Y-127928571D02*
X77043880Y-128023809D01*
X77043880Y-128023809D02*
X76996261Y-128119047D01*
X76996261Y-128119047D02*
X76948642Y-128166666D01*
X76948642Y-128166666D02*
X76853404Y-128214285D01*
X76853404Y-128214285D02*
X76662928Y-128261904D01*
X76662928Y-128261904D02*
X76424833Y-128261904D01*
X76424833Y-128261904D02*
X76234357Y-128214285D01*
X76234357Y-128214285D02*
X76139119Y-128166666D01*
X76139119Y-128166666D02*
X76091500Y-128119047D01*
X76091500Y-128119047D02*
X76043880Y-128023809D01*
X76043880Y-128023809D02*
X76043880Y-127928571D01*
X76043880Y-127928571D02*
X76091500Y-127833333D01*
X76091500Y-127833333D02*
X76139119Y-127785714D01*
X76139119Y-127785714D02*
X76234357Y-127738095D01*
X76234357Y-127738095D02*
X76424833Y-127690476D01*
X76424833Y-127690476D02*
X76662928Y-127690476D01*
X76662928Y-127690476D02*
X76853404Y-127738095D01*
X76853404Y-127738095D02*
X76948642Y-127785714D01*
X76948642Y-127785714D02*
X76996261Y-127833333D01*
X76996261Y-127833333D02*
X77043880Y-127928571D01*
X200113880Y-131866666D02*
X199399595Y-131866666D01*
X199399595Y-131866666D02*
X199256738Y-131819047D01*
X199256738Y-131819047D02*
X199161500Y-131723809D01*
X199161500Y-131723809D02*
X199113880Y-131580952D01*
X199113880Y-131580952D02*
X199113880Y-131485714D01*
X200018642Y-132295238D02*
X200066261Y-132342857D01*
X200066261Y-132342857D02*
X200113880Y-132438095D01*
X200113880Y-132438095D02*
X200113880Y-132676190D01*
X200113880Y-132676190D02*
X200066261Y-132771428D01*
X200066261Y-132771428D02*
X200018642Y-132819047D01*
X200018642Y-132819047D02*
X199923404Y-132866666D01*
X199923404Y-132866666D02*
X199828166Y-132866666D01*
X199828166Y-132866666D02*
X199685309Y-132819047D01*
X199685309Y-132819047D02*
X199113880Y-132247619D01*
X199113880Y-132247619D02*
X199113880Y-132866666D01*
X169543880Y-126833333D02*
X170020071Y-126500000D01*
X169543880Y-126261905D02*
X170543880Y-126261905D01*
X170543880Y-126261905D02*
X170543880Y-126642857D01*
X170543880Y-126642857D02*
X170496261Y-126738095D01*
X170496261Y-126738095D02*
X170448642Y-126785714D01*
X170448642Y-126785714D02*
X170353404Y-126833333D01*
X170353404Y-126833333D02*
X170210547Y-126833333D01*
X170210547Y-126833333D02*
X170115309Y-126785714D01*
X170115309Y-126785714D02*
X170067690Y-126738095D01*
X170067690Y-126738095D02*
X170020071Y-126642857D01*
X170020071Y-126642857D02*
X170020071Y-126261905D01*
X170543880Y-127690476D02*
X170543880Y-127500000D01*
X170543880Y-127500000D02*
X170496261Y-127404762D01*
X170496261Y-127404762D02*
X170448642Y-127357143D01*
X170448642Y-127357143D02*
X170305785Y-127261905D01*
X170305785Y-127261905D02*
X170115309Y-127214286D01*
X170115309Y-127214286D02*
X169734357Y-127214286D01*
X169734357Y-127214286D02*
X169639119Y-127261905D01*
X169639119Y-127261905D02*
X169591500Y-127309524D01*
X169591500Y-127309524D02*
X169543880Y-127404762D01*
X169543880Y-127404762D02*
X169543880Y-127595238D01*
X169543880Y-127595238D02*
X169591500Y-127690476D01*
X169591500Y-127690476D02*
X169639119Y-127738095D01*
X169639119Y-127738095D02*
X169734357Y-127785714D01*
X169734357Y-127785714D02*
X169972452Y-127785714D01*
X169972452Y-127785714D02*
X170067690Y-127738095D01*
X170067690Y-127738095D02*
X170115309Y-127690476D01*
X170115309Y-127690476D02*
X170162928Y-127595238D01*
X170162928Y-127595238D02*
X170162928Y-127404762D01*
X170162928Y-127404762D02*
X170115309Y-127309524D01*
X170115309Y-127309524D02*
X170067690Y-127261905D01*
X170067690Y-127261905D02*
X169972452Y-127214286D01*
X83543880Y-116357142D02*
X84020071Y-116023809D01*
X83543880Y-115785714D02*
X84543880Y-115785714D01*
X84543880Y-115785714D02*
X84543880Y-116166666D01*
X84543880Y-116166666D02*
X84496261Y-116261904D01*
X84496261Y-116261904D02*
X84448642Y-116309523D01*
X84448642Y-116309523D02*
X84353404Y-116357142D01*
X84353404Y-116357142D02*
X84210547Y-116357142D01*
X84210547Y-116357142D02*
X84115309Y-116309523D01*
X84115309Y-116309523D02*
X84067690Y-116261904D01*
X84067690Y-116261904D02*
X84020071Y-116166666D01*
X84020071Y-116166666D02*
X84020071Y-115785714D01*
X83543880Y-117309523D02*
X83543880Y-116738095D01*
X83543880Y-117023809D02*
X84543880Y-117023809D01*
X84543880Y-117023809D02*
X84401023Y-116928571D01*
X84401023Y-116928571D02*
X84305785Y-116833333D01*
X84305785Y-116833333D02*
X84258166Y-116738095D01*
X84543880Y-117642857D02*
X84543880Y-118261904D01*
X84543880Y-118261904D02*
X84162928Y-117928571D01*
X84162928Y-117928571D02*
X84162928Y-118071428D01*
X84162928Y-118071428D02*
X84115309Y-118166666D01*
X84115309Y-118166666D02*
X84067690Y-118214285D01*
X84067690Y-118214285D02*
X83972452Y-118261904D01*
X83972452Y-118261904D02*
X83734357Y-118261904D01*
X83734357Y-118261904D02*
X83639119Y-118214285D01*
X83639119Y-118214285D02*
X83591500Y-118166666D01*
X83591500Y-118166666D02*
X83543880Y-118071428D01*
X83543880Y-118071428D02*
X83543880Y-117785714D01*
X83543880Y-117785714D02*
X83591500Y-117690476D01*
X83591500Y-117690476D02*
X83639119Y-117642857D01*
X137761905Y-118956119D02*
X137761905Y-117956119D01*
X137761905Y-117956119D02*
X138000000Y-117956119D01*
X138000000Y-117956119D02*
X138142857Y-118003738D01*
X138142857Y-118003738D02*
X138238095Y-118098976D01*
X138238095Y-118098976D02*
X138285714Y-118194214D01*
X138285714Y-118194214D02*
X138333333Y-118384690D01*
X138333333Y-118384690D02*
X138333333Y-118527547D01*
X138333333Y-118527547D02*
X138285714Y-118718023D01*
X138285714Y-118718023D02*
X138238095Y-118813261D01*
X138238095Y-118813261D02*
X138142857Y-118908500D01*
X138142857Y-118908500D02*
X138000000Y-118956119D01*
X138000000Y-118956119D02*
X137761905Y-118956119D01*
X138666667Y-117956119D02*
X139333333Y-117956119D01*
X139333333Y-117956119D02*
X138904762Y-118956119D01*
X53543880Y-126357142D02*
X54020071Y-126023809D01*
X53543880Y-125785714D02*
X54543880Y-125785714D01*
X54543880Y-125785714D02*
X54543880Y-126166666D01*
X54543880Y-126166666D02*
X54496261Y-126261904D01*
X54496261Y-126261904D02*
X54448642Y-126309523D01*
X54448642Y-126309523D02*
X54353404Y-126357142D01*
X54353404Y-126357142D02*
X54210547Y-126357142D01*
X54210547Y-126357142D02*
X54115309Y-126309523D01*
X54115309Y-126309523D02*
X54067690Y-126261904D01*
X54067690Y-126261904D02*
X54020071Y-126166666D01*
X54020071Y-126166666D02*
X54020071Y-125785714D01*
X54543880Y-126690476D02*
X54543880Y-127309523D01*
X54543880Y-127309523D02*
X54162928Y-126976190D01*
X54162928Y-126976190D02*
X54162928Y-127119047D01*
X54162928Y-127119047D02*
X54115309Y-127214285D01*
X54115309Y-127214285D02*
X54067690Y-127261904D01*
X54067690Y-127261904D02*
X53972452Y-127309523D01*
X53972452Y-127309523D02*
X53734357Y-127309523D01*
X53734357Y-127309523D02*
X53639119Y-127261904D01*
X53639119Y-127261904D02*
X53591500Y-127214285D01*
X53591500Y-127214285D02*
X53543880Y-127119047D01*
X53543880Y-127119047D02*
X53543880Y-126833333D01*
X53543880Y-126833333D02*
X53591500Y-126738095D01*
X53591500Y-126738095D02*
X53639119Y-126690476D01*
X54448642Y-127690476D02*
X54496261Y-127738095D01*
X54496261Y-127738095D02*
X54543880Y-127833333D01*
X54543880Y-127833333D02*
X54543880Y-128071428D01*
X54543880Y-128071428D02*
X54496261Y-128166666D01*
X54496261Y-128166666D02*
X54448642Y-128214285D01*
X54448642Y-128214285D02*
X54353404Y-128261904D01*
X54353404Y-128261904D02*
X54258166Y-128261904D01*
X54258166Y-128261904D02*
X54115309Y-128214285D01*
X54115309Y-128214285D02*
X53543880Y-127642857D01*
X53543880Y-127642857D02*
X53543880Y-128261904D01*
X179666666Y-87076119D02*
X179666666Y-87790404D01*
X179666666Y-87790404D02*
X179619047Y-87933261D01*
X179619047Y-87933261D02*
X179523809Y-88028500D01*
X179523809Y-88028500D02*
X179380952Y-88076119D01*
X179380952Y-88076119D02*
X179285714Y-88076119D01*
X180190476Y-88076119D02*
X180380952Y-88076119D01*
X180380952Y-88076119D02*
X180476190Y-88028500D01*
X180476190Y-88028500D02*
X180523809Y-87980880D01*
X180523809Y-87980880D02*
X180619047Y-87838023D01*
X180619047Y-87838023D02*
X180666666Y-87647547D01*
X180666666Y-87647547D02*
X180666666Y-87266595D01*
X180666666Y-87266595D02*
X180619047Y-87171357D01*
X180619047Y-87171357D02*
X180571428Y-87123738D01*
X180571428Y-87123738D02*
X180476190Y-87076119D01*
X180476190Y-87076119D02*
X180285714Y-87076119D01*
X180285714Y-87076119D02*
X180190476Y-87123738D01*
X180190476Y-87123738D02*
X180142857Y-87171357D01*
X180142857Y-87171357D02*
X180095238Y-87266595D01*
X180095238Y-87266595D02*
X180095238Y-87504690D01*
X180095238Y-87504690D02*
X180142857Y-87599928D01*
X180142857Y-87599928D02*
X180190476Y-87647547D01*
X180190476Y-87647547D02*
X180285714Y-87695166D01*
X180285714Y-87695166D02*
X180476190Y-87695166D01*
X180476190Y-87695166D02*
X180571428Y-87647547D01*
X180571428Y-87647547D02*
X180619047Y-87599928D01*
X180619047Y-87599928D02*
X180666666Y-87504690D01*
X151043880Y-116833333D02*
X151520071Y-116500000D01*
X151043880Y-116261905D02*
X152043880Y-116261905D01*
X152043880Y-116261905D02*
X152043880Y-116642857D01*
X152043880Y-116642857D02*
X151996261Y-116738095D01*
X151996261Y-116738095D02*
X151948642Y-116785714D01*
X151948642Y-116785714D02*
X151853404Y-116833333D01*
X151853404Y-116833333D02*
X151710547Y-116833333D01*
X151710547Y-116833333D02*
X151615309Y-116785714D01*
X151615309Y-116785714D02*
X151567690Y-116738095D01*
X151567690Y-116738095D02*
X151520071Y-116642857D01*
X151520071Y-116642857D02*
X151520071Y-116261905D01*
X152043880Y-117166667D02*
X152043880Y-117833333D01*
X152043880Y-117833333D02*
X151043880Y-117404762D01*
X87613880Y-131866666D02*
X86899595Y-131866666D01*
X86899595Y-131866666D02*
X86756738Y-131819047D01*
X86756738Y-131819047D02*
X86661500Y-131723809D01*
X86661500Y-131723809D02*
X86613880Y-131580952D01*
X86613880Y-131580952D02*
X86613880Y-131485714D01*
X87613880Y-132247619D02*
X87613880Y-132914285D01*
X87613880Y-132914285D02*
X86613880Y-132485714D01*
X143543880Y-126357142D02*
X144020071Y-126023809D01*
X143543880Y-125785714D02*
X144543880Y-125785714D01*
X144543880Y-125785714D02*
X144543880Y-126166666D01*
X144543880Y-126166666D02*
X144496261Y-126261904D01*
X144496261Y-126261904D02*
X144448642Y-126309523D01*
X144448642Y-126309523D02*
X144353404Y-126357142D01*
X144353404Y-126357142D02*
X144210547Y-126357142D01*
X144210547Y-126357142D02*
X144115309Y-126309523D01*
X144115309Y-126309523D02*
X144067690Y-126261904D01*
X144067690Y-126261904D02*
X144020071Y-126166666D01*
X144020071Y-126166666D02*
X144020071Y-125785714D01*
X144448642Y-126738095D02*
X144496261Y-126785714D01*
X144496261Y-126785714D02*
X144543880Y-126880952D01*
X144543880Y-126880952D02*
X144543880Y-127119047D01*
X144543880Y-127119047D02*
X144496261Y-127214285D01*
X144496261Y-127214285D02*
X144448642Y-127261904D01*
X144448642Y-127261904D02*
X144353404Y-127309523D01*
X144353404Y-127309523D02*
X144258166Y-127309523D01*
X144258166Y-127309523D02*
X144115309Y-127261904D01*
X144115309Y-127261904D02*
X143543880Y-126690476D01*
X143543880Y-126690476D02*
X143543880Y-127309523D01*
X144210547Y-128166666D02*
X143543880Y-128166666D01*
X144591500Y-127928571D02*
X143877214Y-127690476D01*
X143877214Y-127690476D02*
X143877214Y-128309523D01*
X147043880Y-126833333D02*
X147520071Y-126500000D01*
X147043880Y-126261905D02*
X148043880Y-126261905D01*
X148043880Y-126261905D02*
X148043880Y-126642857D01*
X148043880Y-126642857D02*
X147996261Y-126738095D01*
X147996261Y-126738095D02*
X147948642Y-126785714D01*
X147948642Y-126785714D02*
X147853404Y-126833333D01*
X147853404Y-126833333D02*
X147710547Y-126833333D01*
X147710547Y-126833333D02*
X147615309Y-126785714D01*
X147615309Y-126785714D02*
X147567690Y-126738095D01*
X147567690Y-126738095D02*
X147520071Y-126642857D01*
X147520071Y-126642857D02*
X147520071Y-126261905D01*
X147615309Y-127404762D02*
X147662928Y-127309524D01*
X147662928Y-127309524D02*
X147710547Y-127261905D01*
X147710547Y-127261905D02*
X147805785Y-127214286D01*
X147805785Y-127214286D02*
X147853404Y-127214286D01*
X147853404Y-127214286D02*
X147948642Y-127261905D01*
X147948642Y-127261905D02*
X147996261Y-127309524D01*
X147996261Y-127309524D02*
X148043880Y-127404762D01*
X148043880Y-127404762D02*
X148043880Y-127595238D01*
X148043880Y-127595238D02*
X147996261Y-127690476D01*
X147996261Y-127690476D02*
X147948642Y-127738095D01*
X147948642Y-127738095D02*
X147853404Y-127785714D01*
X147853404Y-127785714D02*
X147805785Y-127785714D01*
X147805785Y-127785714D02*
X147710547Y-127738095D01*
X147710547Y-127738095D02*
X147662928Y-127690476D01*
X147662928Y-127690476D02*
X147615309Y-127595238D01*
X147615309Y-127595238D02*
X147615309Y-127404762D01*
X147615309Y-127404762D02*
X147567690Y-127309524D01*
X147567690Y-127309524D02*
X147520071Y-127261905D01*
X147520071Y-127261905D02*
X147424833Y-127214286D01*
X147424833Y-127214286D02*
X147234357Y-127214286D01*
X147234357Y-127214286D02*
X147139119Y-127261905D01*
X147139119Y-127261905D02*
X147091500Y-127309524D01*
X147091500Y-127309524D02*
X147043880Y-127404762D01*
X147043880Y-127404762D02*
X147043880Y-127595238D01*
X147043880Y-127595238D02*
X147091500Y-127690476D01*
X147091500Y-127690476D02*
X147139119Y-127738095D01*
X147139119Y-127738095D02*
X147234357Y-127785714D01*
X147234357Y-127785714D02*
X147424833Y-127785714D01*
X147424833Y-127785714D02*
X147520071Y-127738095D01*
X147520071Y-127738095D02*
X147567690Y-127690476D01*
X147567690Y-127690476D02*
X147615309Y-127595238D01*
X214543880Y-126833333D02*
X215020071Y-126500000D01*
X214543880Y-126261905D02*
X215543880Y-126261905D01*
X215543880Y-126261905D02*
X215543880Y-126642857D01*
X215543880Y-126642857D02*
X215496261Y-126738095D01*
X215496261Y-126738095D02*
X215448642Y-126785714D01*
X215448642Y-126785714D02*
X215353404Y-126833333D01*
X215353404Y-126833333D02*
X215210547Y-126833333D01*
X215210547Y-126833333D02*
X215115309Y-126785714D01*
X215115309Y-126785714D02*
X215067690Y-126738095D01*
X215067690Y-126738095D02*
X215020071Y-126642857D01*
X215020071Y-126642857D02*
X215020071Y-126261905D01*
X215448642Y-127214286D02*
X215496261Y-127261905D01*
X215496261Y-127261905D02*
X215543880Y-127357143D01*
X215543880Y-127357143D02*
X215543880Y-127595238D01*
X215543880Y-127595238D02*
X215496261Y-127690476D01*
X215496261Y-127690476D02*
X215448642Y-127738095D01*
X215448642Y-127738095D02*
X215353404Y-127785714D01*
X215353404Y-127785714D02*
X215258166Y-127785714D01*
X215258166Y-127785714D02*
X215115309Y-127738095D01*
X215115309Y-127738095D02*
X214543880Y-127166667D01*
X214543880Y-127166667D02*
X214543880Y-127785714D01*
X132613880Y-131866666D02*
X131899595Y-131866666D01*
X131899595Y-131866666D02*
X131756738Y-131819047D01*
X131756738Y-131819047D02*
X131661500Y-131723809D01*
X131661500Y-131723809D02*
X131613880Y-131580952D01*
X131613880Y-131580952D02*
X131613880Y-131485714D01*
X132613880Y-132819047D02*
X132613880Y-132342857D01*
X132613880Y-132342857D02*
X132137690Y-132295238D01*
X132137690Y-132295238D02*
X132185309Y-132342857D01*
X132185309Y-132342857D02*
X132232928Y-132438095D01*
X132232928Y-132438095D02*
X132232928Y-132676190D01*
X132232928Y-132676190D02*
X132185309Y-132771428D01*
X132185309Y-132771428D02*
X132137690Y-132819047D01*
X132137690Y-132819047D02*
X132042452Y-132866666D01*
X132042452Y-132866666D02*
X131804357Y-132866666D01*
X131804357Y-132866666D02*
X131709119Y-132819047D01*
X131709119Y-132819047D02*
X131661500Y-132771428D01*
X131661500Y-132771428D02*
X131613880Y-132676190D01*
X131613880Y-132676190D02*
X131613880Y-132438095D01*
X131613880Y-132438095D02*
X131661500Y-132342857D01*
X131661500Y-132342857D02*
X131709119Y-132295238D01*
X218543880Y-116833333D02*
X219020071Y-116500000D01*
X218543880Y-116261905D02*
X219543880Y-116261905D01*
X219543880Y-116261905D02*
X219543880Y-116642857D01*
X219543880Y-116642857D02*
X219496261Y-116738095D01*
X219496261Y-116738095D02*
X219448642Y-116785714D01*
X219448642Y-116785714D02*
X219353404Y-116833333D01*
X219353404Y-116833333D02*
X219210547Y-116833333D01*
X219210547Y-116833333D02*
X219115309Y-116785714D01*
X219115309Y-116785714D02*
X219067690Y-116738095D01*
X219067690Y-116738095D02*
X219020071Y-116642857D01*
X219020071Y-116642857D02*
X219020071Y-116261905D01*
X218543880Y-117785714D02*
X218543880Y-117214286D01*
X218543880Y-117500000D02*
X219543880Y-117500000D01*
X219543880Y-117500000D02*
X219401023Y-117404762D01*
X219401023Y-117404762D02*
X219305785Y-117309524D01*
X219305785Y-117309524D02*
X219258166Y-117214286D01*
X47285714Y-118956119D02*
X47285714Y-117956119D01*
X47285714Y-117956119D02*
X47523809Y-117956119D01*
X47523809Y-117956119D02*
X47666666Y-118003738D01*
X47666666Y-118003738D02*
X47761904Y-118098976D01*
X47761904Y-118098976D02*
X47809523Y-118194214D01*
X47809523Y-118194214D02*
X47857142Y-118384690D01*
X47857142Y-118384690D02*
X47857142Y-118527547D01*
X47857142Y-118527547D02*
X47809523Y-118718023D01*
X47809523Y-118718023D02*
X47761904Y-118813261D01*
X47761904Y-118813261D02*
X47666666Y-118908500D01*
X47666666Y-118908500D02*
X47523809Y-118956119D01*
X47523809Y-118956119D02*
X47285714Y-118956119D01*
X48809523Y-118956119D02*
X48238095Y-118956119D01*
X48523809Y-118956119D02*
X48523809Y-117956119D01*
X48523809Y-117956119D02*
X48428571Y-118098976D01*
X48428571Y-118098976D02*
X48333333Y-118194214D01*
X48333333Y-118194214D02*
X48238095Y-118241833D01*
X49714285Y-117956119D02*
X49238095Y-117956119D01*
X49238095Y-117956119D02*
X49190476Y-118432309D01*
X49190476Y-118432309D02*
X49238095Y-118384690D01*
X49238095Y-118384690D02*
X49333333Y-118337071D01*
X49333333Y-118337071D02*
X49571428Y-118337071D01*
X49571428Y-118337071D02*
X49666666Y-118384690D01*
X49666666Y-118384690D02*
X49714285Y-118432309D01*
X49714285Y-118432309D02*
X49761904Y-118527547D01*
X49761904Y-118527547D02*
X49761904Y-118765642D01*
X49761904Y-118765642D02*
X49714285Y-118860880D01*
X49714285Y-118860880D02*
X49666666Y-118908500D01*
X49666666Y-118908500D02*
X49571428Y-118956119D01*
X49571428Y-118956119D02*
X49333333Y-118956119D01*
X49333333Y-118956119D02*
X49238095Y-118908500D01*
X49238095Y-118908500D02*
X49190476Y-118860880D01*
X144203880Y-89238095D02*
X143394357Y-89238095D01*
X143394357Y-89238095D02*
X143299119Y-89285714D01*
X143299119Y-89285714D02*
X143251500Y-89333333D01*
X143251500Y-89333333D02*
X143203880Y-89428571D01*
X143203880Y-89428571D02*
X143203880Y-89619047D01*
X143203880Y-89619047D02*
X143251500Y-89714285D01*
X143251500Y-89714285D02*
X143299119Y-89761904D01*
X143299119Y-89761904D02*
X143394357Y-89809523D01*
X143394357Y-89809523D02*
X144203880Y-89809523D01*
X144108642Y-90238095D02*
X144156261Y-90285714D01*
X144156261Y-90285714D02*
X144203880Y-90380952D01*
X144203880Y-90380952D02*
X144203880Y-90619047D01*
X144203880Y-90619047D02*
X144156261Y-90714285D01*
X144156261Y-90714285D02*
X144108642Y-90761904D01*
X144108642Y-90761904D02*
X144013404Y-90809523D01*
X144013404Y-90809523D02*
X143918166Y-90809523D01*
X143918166Y-90809523D02*
X143775309Y-90761904D01*
X143775309Y-90761904D02*
X143203880Y-90190476D01*
X143203880Y-90190476D02*
X143203880Y-90809523D01*
X57043880Y-126357142D02*
X57520071Y-126023809D01*
X57043880Y-125785714D02*
X58043880Y-125785714D01*
X58043880Y-125785714D02*
X58043880Y-126166666D01*
X58043880Y-126166666D02*
X57996261Y-126261904D01*
X57996261Y-126261904D02*
X57948642Y-126309523D01*
X57948642Y-126309523D02*
X57853404Y-126357142D01*
X57853404Y-126357142D02*
X57710547Y-126357142D01*
X57710547Y-126357142D02*
X57615309Y-126309523D01*
X57615309Y-126309523D02*
X57567690Y-126261904D01*
X57567690Y-126261904D02*
X57520071Y-126166666D01*
X57520071Y-126166666D02*
X57520071Y-125785714D01*
X57043880Y-127309523D02*
X57043880Y-126738095D01*
X57043880Y-127023809D02*
X58043880Y-127023809D01*
X58043880Y-127023809D02*
X57901023Y-126928571D01*
X57901023Y-126928571D02*
X57805785Y-126833333D01*
X57805785Y-126833333D02*
X57758166Y-126738095D01*
X58043880Y-128166666D02*
X58043880Y-127976190D01*
X58043880Y-127976190D02*
X57996261Y-127880952D01*
X57996261Y-127880952D02*
X57948642Y-127833333D01*
X57948642Y-127833333D02*
X57805785Y-127738095D01*
X57805785Y-127738095D02*
X57615309Y-127690476D01*
X57615309Y-127690476D02*
X57234357Y-127690476D01*
X57234357Y-127690476D02*
X57139119Y-127738095D01*
X57139119Y-127738095D02*
X57091500Y-127785714D01*
X57091500Y-127785714D02*
X57043880Y-127880952D01*
X57043880Y-127880952D02*
X57043880Y-128071428D01*
X57043880Y-128071428D02*
X57091500Y-128166666D01*
X57091500Y-128166666D02*
X57139119Y-128214285D01*
X57139119Y-128214285D02*
X57234357Y-128261904D01*
X57234357Y-128261904D02*
X57472452Y-128261904D01*
X57472452Y-128261904D02*
X57567690Y-128214285D01*
X57567690Y-128214285D02*
X57615309Y-128166666D01*
X57615309Y-128166666D02*
X57662928Y-128071428D01*
X57662928Y-128071428D02*
X57662928Y-127880952D01*
X57662928Y-127880952D02*
X57615309Y-127785714D01*
X57615309Y-127785714D02*
X57567690Y-127738095D01*
X57567690Y-127738095D02*
X57472452Y-127690476D01*
X61043880Y-116357142D02*
X61520071Y-116023809D01*
X61043880Y-115785714D02*
X62043880Y-115785714D01*
X62043880Y-115785714D02*
X62043880Y-116166666D01*
X62043880Y-116166666D02*
X61996261Y-116261904D01*
X61996261Y-116261904D02*
X61948642Y-116309523D01*
X61948642Y-116309523D02*
X61853404Y-116357142D01*
X61853404Y-116357142D02*
X61710547Y-116357142D01*
X61710547Y-116357142D02*
X61615309Y-116309523D01*
X61615309Y-116309523D02*
X61567690Y-116261904D01*
X61567690Y-116261904D02*
X61520071Y-116166666D01*
X61520071Y-116166666D02*
X61520071Y-115785714D01*
X61043880Y-117309523D02*
X61043880Y-116738095D01*
X61043880Y-117023809D02*
X62043880Y-117023809D01*
X62043880Y-117023809D02*
X61901023Y-116928571D01*
X61901023Y-116928571D02*
X61805785Y-116833333D01*
X61805785Y-116833333D02*
X61758166Y-116738095D01*
X62043880Y-118214285D02*
X62043880Y-117738095D01*
X62043880Y-117738095D02*
X61567690Y-117690476D01*
X61567690Y-117690476D02*
X61615309Y-117738095D01*
X61615309Y-117738095D02*
X61662928Y-117833333D01*
X61662928Y-117833333D02*
X61662928Y-118071428D01*
X61662928Y-118071428D02*
X61615309Y-118166666D01*
X61615309Y-118166666D02*
X61567690Y-118214285D01*
X61567690Y-118214285D02*
X61472452Y-118261904D01*
X61472452Y-118261904D02*
X61234357Y-118261904D01*
X61234357Y-118261904D02*
X61139119Y-118214285D01*
X61139119Y-118214285D02*
X61091500Y-118166666D01*
X61091500Y-118166666D02*
X61043880Y-118071428D01*
X61043880Y-118071428D02*
X61043880Y-117833333D01*
X61043880Y-117833333D02*
X61091500Y-117738095D01*
X61091500Y-117738095D02*
X61139119Y-117690476D01*
X140043880Y-125071904D02*
X141043880Y-125071904D01*
X141043880Y-125071904D02*
X141043880Y-125309999D01*
X141043880Y-125309999D02*
X140996261Y-125452856D01*
X140996261Y-125452856D02*
X140901023Y-125548094D01*
X140901023Y-125548094D02*
X140805785Y-125595713D01*
X140805785Y-125595713D02*
X140615309Y-125643332D01*
X140615309Y-125643332D02*
X140472452Y-125643332D01*
X140472452Y-125643332D02*
X140281976Y-125595713D01*
X140281976Y-125595713D02*
X140186738Y-125548094D01*
X140186738Y-125548094D02*
X140091500Y-125452856D01*
X140091500Y-125452856D02*
X140043880Y-125309999D01*
X140043880Y-125309999D02*
X140043880Y-125071904D01*
X140615309Y-126214761D02*
X140662928Y-126119523D01*
X140662928Y-126119523D02*
X140710547Y-126071904D01*
X140710547Y-126071904D02*
X140805785Y-126024285D01*
X140805785Y-126024285D02*
X140853404Y-126024285D01*
X140853404Y-126024285D02*
X140948642Y-126071904D01*
X140948642Y-126071904D02*
X140996261Y-126119523D01*
X140996261Y-126119523D02*
X141043880Y-126214761D01*
X141043880Y-126214761D02*
X141043880Y-126405237D01*
X141043880Y-126405237D02*
X140996261Y-126500475D01*
X140996261Y-126500475D02*
X140948642Y-126548094D01*
X140948642Y-126548094D02*
X140853404Y-126595713D01*
X140853404Y-126595713D02*
X140805785Y-126595713D01*
X140805785Y-126595713D02*
X140710547Y-126548094D01*
X140710547Y-126548094D02*
X140662928Y-126500475D01*
X140662928Y-126500475D02*
X140615309Y-126405237D01*
X140615309Y-126405237D02*
X140615309Y-126214761D01*
X140615309Y-126214761D02*
X140567690Y-126119523D01*
X140567690Y-126119523D02*
X140520071Y-126071904D01*
X140520071Y-126071904D02*
X140424833Y-126024285D01*
X140424833Y-126024285D02*
X140234357Y-126024285D01*
X140234357Y-126024285D02*
X140139119Y-126071904D01*
X140139119Y-126071904D02*
X140091500Y-126119523D01*
X140091500Y-126119523D02*
X140043880Y-126214761D01*
X140043880Y-126214761D02*
X140043880Y-126405237D01*
X140043880Y-126405237D02*
X140091500Y-126500475D01*
X140091500Y-126500475D02*
X140139119Y-126548094D01*
X140139119Y-126548094D02*
X140234357Y-126595713D01*
X140234357Y-126595713D02*
X140424833Y-126595713D01*
X140424833Y-126595713D02*
X140520071Y-126548094D01*
X140520071Y-126548094D02*
X140567690Y-126500475D01*
X140567690Y-126500475D02*
X140615309Y-126405237D01*
X115761905Y-118956119D02*
X115761905Y-117956119D01*
X115761905Y-117956119D02*
X116000000Y-117956119D01*
X116000000Y-117956119D02*
X116142857Y-118003738D01*
X116142857Y-118003738D02*
X116238095Y-118098976D01*
X116238095Y-118098976D02*
X116285714Y-118194214D01*
X116285714Y-118194214D02*
X116333333Y-118384690D01*
X116333333Y-118384690D02*
X116333333Y-118527547D01*
X116333333Y-118527547D02*
X116285714Y-118718023D01*
X116285714Y-118718023D02*
X116238095Y-118813261D01*
X116238095Y-118813261D02*
X116142857Y-118908500D01*
X116142857Y-118908500D02*
X116000000Y-118956119D01*
X116000000Y-118956119D02*
X115761905Y-118956119D01*
X116809524Y-118956119D02*
X117000000Y-118956119D01*
X117000000Y-118956119D02*
X117095238Y-118908500D01*
X117095238Y-118908500D02*
X117142857Y-118860880D01*
X117142857Y-118860880D02*
X117238095Y-118718023D01*
X117238095Y-118718023D02*
X117285714Y-118527547D01*
X117285714Y-118527547D02*
X117285714Y-118146595D01*
X117285714Y-118146595D02*
X117238095Y-118051357D01*
X117238095Y-118051357D02*
X117190476Y-118003738D01*
X117190476Y-118003738D02*
X117095238Y-117956119D01*
X117095238Y-117956119D02*
X116904762Y-117956119D01*
X116904762Y-117956119D02*
X116809524Y-118003738D01*
X116809524Y-118003738D02*
X116761905Y-118051357D01*
X116761905Y-118051357D02*
X116714286Y-118146595D01*
X116714286Y-118146595D02*
X116714286Y-118384690D01*
X116714286Y-118384690D02*
X116761905Y-118479928D01*
X116761905Y-118479928D02*
X116809524Y-118527547D01*
X116809524Y-118527547D02*
X116904762Y-118575166D01*
X116904762Y-118575166D02*
X117095238Y-118575166D01*
X117095238Y-118575166D02*
X117190476Y-118527547D01*
X117190476Y-118527547D02*
X117238095Y-118479928D01*
X117238095Y-118479928D02*
X117285714Y-118384690D01*
X139357142Y-115456119D02*
X139023809Y-114979928D01*
X138785714Y-115456119D02*
X138785714Y-114456119D01*
X138785714Y-114456119D02*
X139166666Y-114456119D01*
X139166666Y-114456119D02*
X139261904Y-114503738D01*
X139261904Y-114503738D02*
X139309523Y-114551357D01*
X139309523Y-114551357D02*
X139357142Y-114646595D01*
X139357142Y-114646595D02*
X139357142Y-114789452D01*
X139357142Y-114789452D02*
X139309523Y-114884690D01*
X139309523Y-114884690D02*
X139261904Y-114932309D01*
X139261904Y-114932309D02*
X139166666Y-114979928D01*
X139166666Y-114979928D02*
X138785714Y-114979928D01*
X139738095Y-114551357D02*
X139785714Y-114503738D01*
X139785714Y-114503738D02*
X139880952Y-114456119D01*
X139880952Y-114456119D02*
X140119047Y-114456119D01*
X140119047Y-114456119D02*
X140214285Y-114503738D01*
X140214285Y-114503738D02*
X140261904Y-114551357D01*
X140261904Y-114551357D02*
X140309523Y-114646595D01*
X140309523Y-114646595D02*
X140309523Y-114741833D01*
X140309523Y-114741833D02*
X140261904Y-114884690D01*
X140261904Y-114884690D02*
X139690476Y-115456119D01*
X139690476Y-115456119D02*
X140309523Y-115456119D01*
X140642857Y-114456119D02*
X141261904Y-114456119D01*
X141261904Y-114456119D02*
X140928571Y-114837071D01*
X140928571Y-114837071D02*
X141071428Y-114837071D01*
X141071428Y-114837071D02*
X141166666Y-114884690D01*
X141166666Y-114884690D02*
X141214285Y-114932309D01*
X141214285Y-114932309D02*
X141261904Y-115027547D01*
X141261904Y-115027547D02*
X141261904Y-115265642D01*
X141261904Y-115265642D02*
X141214285Y-115360880D01*
X141214285Y-115360880D02*
X141166666Y-115408500D01*
X141166666Y-115408500D02*
X141071428Y-115456119D01*
X141071428Y-115456119D02*
X140785714Y-115456119D01*
X140785714Y-115456119D02*
X140690476Y-115408500D01*
X140690476Y-115408500D02*
X140642857Y-115360880D01*
X49357142Y-115456119D02*
X49023809Y-114979928D01*
X48785714Y-115456119D02*
X48785714Y-114456119D01*
X48785714Y-114456119D02*
X49166666Y-114456119D01*
X49166666Y-114456119D02*
X49261904Y-114503738D01*
X49261904Y-114503738D02*
X49309523Y-114551357D01*
X49309523Y-114551357D02*
X49357142Y-114646595D01*
X49357142Y-114646595D02*
X49357142Y-114789452D01*
X49357142Y-114789452D02*
X49309523Y-114884690D01*
X49309523Y-114884690D02*
X49261904Y-114932309D01*
X49261904Y-114932309D02*
X49166666Y-114979928D01*
X49166666Y-114979928D02*
X48785714Y-114979928D01*
X49690476Y-114456119D02*
X50309523Y-114456119D01*
X50309523Y-114456119D02*
X49976190Y-114837071D01*
X49976190Y-114837071D02*
X50119047Y-114837071D01*
X50119047Y-114837071D02*
X50214285Y-114884690D01*
X50214285Y-114884690D02*
X50261904Y-114932309D01*
X50261904Y-114932309D02*
X50309523Y-115027547D01*
X50309523Y-115027547D02*
X50309523Y-115265642D01*
X50309523Y-115265642D02*
X50261904Y-115360880D01*
X50261904Y-115360880D02*
X50214285Y-115408500D01*
X50214285Y-115408500D02*
X50119047Y-115456119D01*
X50119047Y-115456119D02*
X49833333Y-115456119D01*
X49833333Y-115456119D02*
X49738095Y-115408500D01*
X49738095Y-115408500D02*
X49690476Y-115360880D01*
X51261904Y-115456119D02*
X50690476Y-115456119D01*
X50976190Y-115456119D02*
X50976190Y-114456119D01*
X50976190Y-114456119D02*
X50880952Y-114598976D01*
X50880952Y-114598976D02*
X50785714Y-114694214D01*
X50785714Y-114694214D02*
X50690476Y-114741833D01*
X196043880Y-116833333D02*
X196520071Y-116500000D01*
X196043880Y-116261905D02*
X197043880Y-116261905D01*
X197043880Y-116261905D02*
X197043880Y-116642857D01*
X197043880Y-116642857D02*
X196996261Y-116738095D01*
X196996261Y-116738095D02*
X196948642Y-116785714D01*
X196948642Y-116785714D02*
X196853404Y-116833333D01*
X196853404Y-116833333D02*
X196710547Y-116833333D01*
X196710547Y-116833333D02*
X196615309Y-116785714D01*
X196615309Y-116785714D02*
X196567690Y-116738095D01*
X196567690Y-116738095D02*
X196520071Y-116642857D01*
X196520071Y-116642857D02*
X196520071Y-116261905D01*
X197043880Y-117166667D02*
X197043880Y-117785714D01*
X197043880Y-117785714D02*
X196662928Y-117452381D01*
X196662928Y-117452381D02*
X196662928Y-117595238D01*
X196662928Y-117595238D02*
X196615309Y-117690476D01*
X196615309Y-117690476D02*
X196567690Y-117738095D01*
X196567690Y-117738095D02*
X196472452Y-117785714D01*
X196472452Y-117785714D02*
X196234357Y-117785714D01*
X196234357Y-117785714D02*
X196139119Y-117738095D01*
X196139119Y-117738095D02*
X196091500Y-117690476D01*
X196091500Y-117690476D02*
X196043880Y-117595238D01*
X196043880Y-117595238D02*
X196043880Y-117309524D01*
X196043880Y-117309524D02*
X196091500Y-117214286D01*
X196091500Y-117214286D02*
X196139119Y-117166667D01*
X69785714Y-118956119D02*
X69785714Y-117956119D01*
X69785714Y-117956119D02*
X70023809Y-117956119D01*
X70023809Y-117956119D02*
X70166666Y-118003738D01*
X70166666Y-118003738D02*
X70261904Y-118098976D01*
X70261904Y-118098976D02*
X70309523Y-118194214D01*
X70309523Y-118194214D02*
X70357142Y-118384690D01*
X70357142Y-118384690D02*
X70357142Y-118527547D01*
X70357142Y-118527547D02*
X70309523Y-118718023D01*
X70309523Y-118718023D02*
X70261904Y-118813261D01*
X70261904Y-118813261D02*
X70166666Y-118908500D01*
X70166666Y-118908500D02*
X70023809Y-118956119D01*
X70023809Y-118956119D02*
X69785714Y-118956119D01*
X71309523Y-118956119D02*
X70738095Y-118956119D01*
X71023809Y-118956119D02*
X71023809Y-117956119D01*
X71023809Y-117956119D02*
X70928571Y-118098976D01*
X70928571Y-118098976D02*
X70833333Y-118194214D01*
X70833333Y-118194214D02*
X70738095Y-118241833D01*
X71642857Y-117956119D02*
X72261904Y-117956119D01*
X72261904Y-117956119D02*
X71928571Y-118337071D01*
X71928571Y-118337071D02*
X72071428Y-118337071D01*
X72071428Y-118337071D02*
X72166666Y-118384690D01*
X72166666Y-118384690D02*
X72214285Y-118432309D01*
X72214285Y-118432309D02*
X72261904Y-118527547D01*
X72261904Y-118527547D02*
X72261904Y-118765642D01*
X72261904Y-118765642D02*
X72214285Y-118860880D01*
X72214285Y-118860880D02*
X72166666Y-118908500D01*
X72166666Y-118908500D02*
X72071428Y-118956119D01*
X72071428Y-118956119D02*
X71785714Y-118956119D01*
X71785714Y-118956119D02*
X71690476Y-118908500D01*
X71690476Y-118908500D02*
X71642857Y-118860880D01*
X65113880Y-131866666D02*
X64399595Y-131866666D01*
X64399595Y-131866666D02*
X64256738Y-131819047D01*
X64256738Y-131819047D02*
X64161500Y-131723809D01*
X64161500Y-131723809D02*
X64113880Y-131580952D01*
X64113880Y-131580952D02*
X64113880Y-131485714D01*
X64685309Y-132485714D02*
X64732928Y-132390476D01*
X64732928Y-132390476D02*
X64780547Y-132342857D01*
X64780547Y-132342857D02*
X64875785Y-132295238D01*
X64875785Y-132295238D02*
X64923404Y-132295238D01*
X64923404Y-132295238D02*
X65018642Y-132342857D01*
X65018642Y-132342857D02*
X65066261Y-132390476D01*
X65066261Y-132390476D02*
X65113880Y-132485714D01*
X65113880Y-132485714D02*
X65113880Y-132676190D01*
X65113880Y-132676190D02*
X65066261Y-132771428D01*
X65066261Y-132771428D02*
X65018642Y-132819047D01*
X65018642Y-132819047D02*
X64923404Y-132866666D01*
X64923404Y-132866666D02*
X64875785Y-132866666D01*
X64875785Y-132866666D02*
X64780547Y-132819047D01*
X64780547Y-132819047D02*
X64732928Y-132771428D01*
X64732928Y-132771428D02*
X64685309Y-132676190D01*
X64685309Y-132676190D02*
X64685309Y-132485714D01*
X64685309Y-132485714D02*
X64637690Y-132390476D01*
X64637690Y-132390476D02*
X64590071Y-132342857D01*
X64590071Y-132342857D02*
X64494833Y-132295238D01*
X64494833Y-132295238D02*
X64304357Y-132295238D01*
X64304357Y-132295238D02*
X64209119Y-132342857D01*
X64209119Y-132342857D02*
X64161500Y-132390476D01*
X64161500Y-132390476D02*
X64113880Y-132485714D01*
X64113880Y-132485714D02*
X64113880Y-132676190D01*
X64113880Y-132676190D02*
X64161500Y-132771428D01*
X64161500Y-132771428D02*
X64209119Y-132819047D01*
X64209119Y-132819047D02*
X64304357Y-132866666D01*
X64304357Y-132866666D02*
X64494833Y-132866666D01*
X64494833Y-132866666D02*
X64590071Y-132819047D01*
X64590071Y-132819047D02*
X64637690Y-132771428D01*
X64637690Y-132771428D02*
X64685309Y-132676190D01*
X102043880Y-126357142D02*
X102520071Y-126023809D01*
X102043880Y-125785714D02*
X103043880Y-125785714D01*
X103043880Y-125785714D02*
X103043880Y-126166666D01*
X103043880Y-126166666D02*
X102996261Y-126261904D01*
X102996261Y-126261904D02*
X102948642Y-126309523D01*
X102948642Y-126309523D02*
X102853404Y-126357142D01*
X102853404Y-126357142D02*
X102710547Y-126357142D01*
X102710547Y-126357142D02*
X102615309Y-126309523D01*
X102615309Y-126309523D02*
X102567690Y-126261904D01*
X102567690Y-126261904D02*
X102520071Y-126166666D01*
X102520071Y-126166666D02*
X102520071Y-125785714D01*
X102043880Y-127309523D02*
X102043880Y-126738095D01*
X102043880Y-127023809D02*
X103043880Y-127023809D01*
X103043880Y-127023809D02*
X102901023Y-126928571D01*
X102901023Y-126928571D02*
X102805785Y-126833333D01*
X102805785Y-126833333D02*
X102758166Y-126738095D01*
X102948642Y-127690476D02*
X102996261Y-127738095D01*
X102996261Y-127738095D02*
X103043880Y-127833333D01*
X103043880Y-127833333D02*
X103043880Y-128071428D01*
X103043880Y-128071428D02*
X102996261Y-128166666D01*
X102996261Y-128166666D02*
X102948642Y-128214285D01*
X102948642Y-128214285D02*
X102853404Y-128261904D01*
X102853404Y-128261904D02*
X102758166Y-128261904D01*
X102758166Y-128261904D02*
X102615309Y-128214285D01*
X102615309Y-128214285D02*
X102043880Y-127642857D01*
X102043880Y-127642857D02*
X102043880Y-128261904D01*
X173543880Y-116833333D02*
X174020071Y-116500000D01*
X173543880Y-116261905D02*
X174543880Y-116261905D01*
X174543880Y-116261905D02*
X174543880Y-116642857D01*
X174543880Y-116642857D02*
X174496261Y-116738095D01*
X174496261Y-116738095D02*
X174448642Y-116785714D01*
X174448642Y-116785714D02*
X174353404Y-116833333D01*
X174353404Y-116833333D02*
X174210547Y-116833333D01*
X174210547Y-116833333D02*
X174115309Y-116785714D01*
X174115309Y-116785714D02*
X174067690Y-116738095D01*
X174067690Y-116738095D02*
X174020071Y-116642857D01*
X174020071Y-116642857D02*
X174020071Y-116261905D01*
X174543880Y-117738095D02*
X174543880Y-117261905D01*
X174543880Y-117261905D02*
X174067690Y-117214286D01*
X174067690Y-117214286D02*
X174115309Y-117261905D01*
X174115309Y-117261905D02*
X174162928Y-117357143D01*
X174162928Y-117357143D02*
X174162928Y-117595238D01*
X174162928Y-117595238D02*
X174115309Y-117690476D01*
X174115309Y-117690476D02*
X174067690Y-117738095D01*
X174067690Y-117738095D02*
X173972452Y-117785714D01*
X173972452Y-117785714D02*
X173734357Y-117785714D01*
X173734357Y-117785714D02*
X173639119Y-117738095D01*
X173639119Y-117738095D02*
X173591500Y-117690476D01*
X173591500Y-117690476D02*
X173543880Y-117595238D01*
X173543880Y-117595238D02*
X173543880Y-117357143D01*
X173543880Y-117357143D02*
X173591500Y-117261905D01*
X173591500Y-117261905D02*
X173639119Y-117214286D01*
X117543880Y-124785714D02*
X118543880Y-124785714D01*
X118543880Y-124785714D02*
X118543880Y-125023809D01*
X118543880Y-125023809D02*
X118496261Y-125166666D01*
X118496261Y-125166666D02*
X118401023Y-125261904D01*
X118401023Y-125261904D02*
X118305785Y-125309523D01*
X118305785Y-125309523D02*
X118115309Y-125357142D01*
X118115309Y-125357142D02*
X117972452Y-125357142D01*
X117972452Y-125357142D02*
X117781976Y-125309523D01*
X117781976Y-125309523D02*
X117686738Y-125261904D01*
X117686738Y-125261904D02*
X117591500Y-125166666D01*
X117591500Y-125166666D02*
X117543880Y-125023809D01*
X117543880Y-125023809D02*
X117543880Y-124785714D01*
X117543880Y-126309523D02*
X117543880Y-125738095D01*
X117543880Y-126023809D02*
X118543880Y-126023809D01*
X118543880Y-126023809D02*
X118401023Y-125928571D01*
X118401023Y-125928571D02*
X118305785Y-125833333D01*
X118305785Y-125833333D02*
X118258166Y-125738095D01*
X118543880Y-126928571D02*
X118543880Y-127023809D01*
X118543880Y-127023809D02*
X118496261Y-127119047D01*
X118496261Y-127119047D02*
X118448642Y-127166666D01*
X118448642Y-127166666D02*
X118353404Y-127214285D01*
X118353404Y-127214285D02*
X118162928Y-127261904D01*
X118162928Y-127261904D02*
X117924833Y-127261904D01*
X117924833Y-127261904D02*
X117734357Y-127214285D01*
X117734357Y-127214285D02*
X117639119Y-127166666D01*
X117639119Y-127166666D02*
X117591500Y-127119047D01*
X117591500Y-127119047D02*
X117543880Y-127023809D01*
X117543880Y-127023809D02*
X117543880Y-126928571D01*
X117543880Y-126928571D02*
X117591500Y-126833333D01*
X117591500Y-126833333D02*
X117639119Y-126785714D01*
X117639119Y-126785714D02*
X117734357Y-126738095D01*
X117734357Y-126738095D02*
X117924833Y-126690476D01*
X117924833Y-126690476D02*
X118162928Y-126690476D01*
X118162928Y-126690476D02*
X118353404Y-126738095D01*
X118353404Y-126738095D02*
X118448642Y-126785714D01*
X118448642Y-126785714D02*
X118496261Y-126833333D01*
X118496261Y-126833333D02*
X118543880Y-126928571D01*
X124543880Y-126357142D02*
X125020071Y-126023809D01*
X124543880Y-125785714D02*
X125543880Y-125785714D01*
X125543880Y-125785714D02*
X125543880Y-126166666D01*
X125543880Y-126166666D02*
X125496261Y-126261904D01*
X125496261Y-126261904D02*
X125448642Y-126309523D01*
X125448642Y-126309523D02*
X125353404Y-126357142D01*
X125353404Y-126357142D02*
X125210547Y-126357142D01*
X125210547Y-126357142D02*
X125115309Y-126309523D01*
X125115309Y-126309523D02*
X125067690Y-126261904D01*
X125067690Y-126261904D02*
X125020071Y-126166666D01*
X125020071Y-126166666D02*
X125020071Y-125785714D01*
X124543880Y-127309523D02*
X124543880Y-126738095D01*
X124543880Y-127023809D02*
X125543880Y-127023809D01*
X125543880Y-127023809D02*
X125401023Y-126928571D01*
X125401023Y-126928571D02*
X125305785Y-126833333D01*
X125305785Y-126833333D02*
X125258166Y-126738095D01*
X125543880Y-127928571D02*
X125543880Y-128023809D01*
X125543880Y-128023809D02*
X125496261Y-128119047D01*
X125496261Y-128119047D02*
X125448642Y-128166666D01*
X125448642Y-128166666D02*
X125353404Y-128214285D01*
X125353404Y-128214285D02*
X125162928Y-128261904D01*
X125162928Y-128261904D02*
X124924833Y-128261904D01*
X124924833Y-128261904D02*
X124734357Y-128214285D01*
X124734357Y-128214285D02*
X124639119Y-128166666D01*
X124639119Y-128166666D02*
X124591500Y-128119047D01*
X124591500Y-128119047D02*
X124543880Y-128023809D01*
X124543880Y-128023809D02*
X124543880Y-127928571D01*
X124543880Y-127928571D02*
X124591500Y-127833333D01*
X124591500Y-127833333D02*
X124639119Y-127785714D01*
X124639119Y-127785714D02*
X124734357Y-127738095D01*
X124734357Y-127738095D02*
X124924833Y-127690476D01*
X124924833Y-127690476D02*
X125162928Y-127690476D01*
X125162928Y-127690476D02*
X125353404Y-127738095D01*
X125353404Y-127738095D02*
X125448642Y-127785714D01*
X125448642Y-127785714D02*
X125496261Y-127833333D01*
X125496261Y-127833333D02*
X125543880Y-127928571D01*
X95043880Y-124785714D02*
X96043880Y-124785714D01*
X96043880Y-124785714D02*
X96043880Y-125023809D01*
X96043880Y-125023809D02*
X95996261Y-125166666D01*
X95996261Y-125166666D02*
X95901023Y-125261904D01*
X95901023Y-125261904D02*
X95805785Y-125309523D01*
X95805785Y-125309523D02*
X95615309Y-125357142D01*
X95615309Y-125357142D02*
X95472452Y-125357142D01*
X95472452Y-125357142D02*
X95281976Y-125309523D01*
X95281976Y-125309523D02*
X95186738Y-125261904D01*
X95186738Y-125261904D02*
X95091500Y-125166666D01*
X95091500Y-125166666D02*
X95043880Y-125023809D01*
X95043880Y-125023809D02*
X95043880Y-124785714D01*
X95043880Y-126309523D02*
X95043880Y-125738095D01*
X95043880Y-126023809D02*
X96043880Y-126023809D01*
X96043880Y-126023809D02*
X95901023Y-125928571D01*
X95901023Y-125928571D02*
X95805785Y-125833333D01*
X95805785Y-125833333D02*
X95758166Y-125738095D01*
X95948642Y-126690476D02*
X95996261Y-126738095D01*
X95996261Y-126738095D02*
X96043880Y-126833333D01*
X96043880Y-126833333D02*
X96043880Y-127071428D01*
X96043880Y-127071428D02*
X95996261Y-127166666D01*
X95996261Y-127166666D02*
X95948642Y-127214285D01*
X95948642Y-127214285D02*
X95853404Y-127261904D01*
X95853404Y-127261904D02*
X95758166Y-127261904D01*
X95758166Y-127261904D02*
X95615309Y-127214285D01*
X95615309Y-127214285D02*
X95043880Y-126642857D01*
X95043880Y-126642857D02*
X95043880Y-127261904D01*
X72543880Y-124785714D02*
X73543880Y-124785714D01*
X73543880Y-124785714D02*
X73543880Y-125023809D01*
X73543880Y-125023809D02*
X73496261Y-125166666D01*
X73496261Y-125166666D02*
X73401023Y-125261904D01*
X73401023Y-125261904D02*
X73305785Y-125309523D01*
X73305785Y-125309523D02*
X73115309Y-125357142D01*
X73115309Y-125357142D02*
X72972452Y-125357142D01*
X72972452Y-125357142D02*
X72781976Y-125309523D01*
X72781976Y-125309523D02*
X72686738Y-125261904D01*
X72686738Y-125261904D02*
X72591500Y-125166666D01*
X72591500Y-125166666D02*
X72543880Y-125023809D01*
X72543880Y-125023809D02*
X72543880Y-124785714D01*
X72543880Y-126309523D02*
X72543880Y-125738095D01*
X72543880Y-126023809D02*
X73543880Y-126023809D01*
X73543880Y-126023809D02*
X73401023Y-125928571D01*
X73401023Y-125928571D02*
X73305785Y-125833333D01*
X73305785Y-125833333D02*
X73258166Y-125738095D01*
X73210547Y-127166666D02*
X72543880Y-127166666D01*
X73591500Y-126928571D02*
X72877214Y-126690476D01*
X72877214Y-126690476D02*
X72877214Y-127309523D01*
X71857142Y-115456119D02*
X71523809Y-114979928D01*
X71285714Y-115456119D02*
X71285714Y-114456119D01*
X71285714Y-114456119D02*
X71666666Y-114456119D01*
X71666666Y-114456119D02*
X71761904Y-114503738D01*
X71761904Y-114503738D02*
X71809523Y-114551357D01*
X71809523Y-114551357D02*
X71857142Y-114646595D01*
X71857142Y-114646595D02*
X71857142Y-114789452D01*
X71857142Y-114789452D02*
X71809523Y-114884690D01*
X71809523Y-114884690D02*
X71761904Y-114932309D01*
X71761904Y-114932309D02*
X71666666Y-114979928D01*
X71666666Y-114979928D02*
X71285714Y-114979928D01*
X72238095Y-114551357D02*
X72285714Y-114503738D01*
X72285714Y-114503738D02*
X72380952Y-114456119D01*
X72380952Y-114456119D02*
X72619047Y-114456119D01*
X72619047Y-114456119D02*
X72714285Y-114503738D01*
X72714285Y-114503738D02*
X72761904Y-114551357D01*
X72761904Y-114551357D02*
X72809523Y-114646595D01*
X72809523Y-114646595D02*
X72809523Y-114741833D01*
X72809523Y-114741833D02*
X72761904Y-114884690D01*
X72761904Y-114884690D02*
X72190476Y-115456119D01*
X72190476Y-115456119D02*
X72809523Y-115456119D01*
X73285714Y-115456119D02*
X73476190Y-115456119D01*
X73476190Y-115456119D02*
X73571428Y-115408500D01*
X73571428Y-115408500D02*
X73619047Y-115360880D01*
X73619047Y-115360880D02*
X73714285Y-115218023D01*
X73714285Y-115218023D02*
X73761904Y-115027547D01*
X73761904Y-115027547D02*
X73761904Y-114646595D01*
X73761904Y-114646595D02*
X73714285Y-114551357D01*
X73714285Y-114551357D02*
X73666666Y-114503738D01*
X73666666Y-114503738D02*
X73571428Y-114456119D01*
X73571428Y-114456119D02*
X73380952Y-114456119D01*
X73380952Y-114456119D02*
X73285714Y-114503738D01*
X73285714Y-114503738D02*
X73238095Y-114551357D01*
X73238095Y-114551357D02*
X73190476Y-114646595D01*
X73190476Y-114646595D02*
X73190476Y-114884690D01*
X73190476Y-114884690D02*
X73238095Y-114979928D01*
X73238095Y-114979928D02*
X73285714Y-115027547D01*
X73285714Y-115027547D02*
X73380952Y-115075166D01*
X73380952Y-115075166D02*
X73571428Y-115075166D01*
X73571428Y-115075166D02*
X73666666Y-115027547D01*
X73666666Y-115027547D02*
X73714285Y-114979928D01*
X73714285Y-114979928D02*
X73761904Y-114884690D01*
X166043880Y-126357142D02*
X166520071Y-126023809D01*
X166043880Y-125785714D02*
X167043880Y-125785714D01*
X167043880Y-125785714D02*
X167043880Y-126166666D01*
X167043880Y-126166666D02*
X166996261Y-126261904D01*
X166996261Y-126261904D02*
X166948642Y-126309523D01*
X166948642Y-126309523D02*
X166853404Y-126357142D01*
X166853404Y-126357142D02*
X166710547Y-126357142D01*
X166710547Y-126357142D02*
X166615309Y-126309523D01*
X166615309Y-126309523D02*
X166567690Y-126261904D01*
X166567690Y-126261904D02*
X166520071Y-126166666D01*
X166520071Y-126166666D02*
X166520071Y-125785714D01*
X166948642Y-126738095D02*
X166996261Y-126785714D01*
X166996261Y-126785714D02*
X167043880Y-126880952D01*
X167043880Y-126880952D02*
X167043880Y-127119047D01*
X167043880Y-127119047D02*
X166996261Y-127214285D01*
X166996261Y-127214285D02*
X166948642Y-127261904D01*
X166948642Y-127261904D02*
X166853404Y-127309523D01*
X166853404Y-127309523D02*
X166758166Y-127309523D01*
X166758166Y-127309523D02*
X166615309Y-127261904D01*
X166615309Y-127261904D02*
X166043880Y-126690476D01*
X166043880Y-126690476D02*
X166043880Y-127309523D01*
X166948642Y-127690476D02*
X166996261Y-127738095D01*
X166996261Y-127738095D02*
X167043880Y-127833333D01*
X167043880Y-127833333D02*
X167043880Y-128071428D01*
X167043880Y-128071428D02*
X166996261Y-128166666D01*
X166996261Y-128166666D02*
X166948642Y-128214285D01*
X166948642Y-128214285D02*
X166853404Y-128261904D01*
X166853404Y-128261904D02*
X166758166Y-128261904D01*
X166758166Y-128261904D02*
X166615309Y-128214285D01*
X166615309Y-128214285D02*
X166043880Y-127642857D01*
X166043880Y-127642857D02*
X166043880Y-128261904D01*
X155113880Y-131866666D02*
X154399595Y-131866666D01*
X154399595Y-131866666D02*
X154256738Y-131819047D01*
X154256738Y-131819047D02*
X154161500Y-131723809D01*
X154161500Y-131723809D02*
X154113880Y-131580952D01*
X154113880Y-131580952D02*
X154113880Y-131485714D01*
X154780547Y-132771428D02*
X154113880Y-132771428D01*
X155161500Y-132533333D02*
X154447214Y-132295238D01*
X154447214Y-132295238D02*
X154447214Y-132914285D01*
X207543880Y-125071904D02*
X208543880Y-125071904D01*
X208543880Y-125071904D02*
X208543880Y-125309999D01*
X208543880Y-125309999D02*
X208496261Y-125452856D01*
X208496261Y-125452856D02*
X208401023Y-125548094D01*
X208401023Y-125548094D02*
X208305785Y-125595713D01*
X208305785Y-125595713D02*
X208115309Y-125643332D01*
X208115309Y-125643332D02*
X207972452Y-125643332D01*
X207972452Y-125643332D02*
X207781976Y-125595713D01*
X207781976Y-125595713D02*
X207686738Y-125548094D01*
X207686738Y-125548094D02*
X207591500Y-125452856D01*
X207591500Y-125452856D02*
X207543880Y-125309999D01*
X207543880Y-125309999D02*
X207543880Y-125071904D01*
X208448642Y-126024285D02*
X208496261Y-126071904D01*
X208496261Y-126071904D02*
X208543880Y-126167142D01*
X208543880Y-126167142D02*
X208543880Y-126405237D01*
X208543880Y-126405237D02*
X208496261Y-126500475D01*
X208496261Y-126500475D02*
X208448642Y-126548094D01*
X208448642Y-126548094D02*
X208353404Y-126595713D01*
X208353404Y-126595713D02*
X208258166Y-126595713D01*
X208258166Y-126595713D02*
X208115309Y-126548094D01*
X208115309Y-126548094D02*
X207543880Y-125976666D01*
X207543880Y-125976666D02*
X207543880Y-126595713D01*
X92285714Y-118956119D02*
X92285714Y-117956119D01*
X92285714Y-117956119D02*
X92523809Y-117956119D01*
X92523809Y-117956119D02*
X92666666Y-118003738D01*
X92666666Y-118003738D02*
X92761904Y-118098976D01*
X92761904Y-118098976D02*
X92809523Y-118194214D01*
X92809523Y-118194214D02*
X92857142Y-118384690D01*
X92857142Y-118384690D02*
X92857142Y-118527547D01*
X92857142Y-118527547D02*
X92809523Y-118718023D01*
X92809523Y-118718023D02*
X92761904Y-118813261D01*
X92761904Y-118813261D02*
X92666666Y-118908500D01*
X92666666Y-118908500D02*
X92523809Y-118956119D01*
X92523809Y-118956119D02*
X92285714Y-118956119D01*
X93809523Y-118956119D02*
X93238095Y-118956119D01*
X93523809Y-118956119D02*
X93523809Y-117956119D01*
X93523809Y-117956119D02*
X93428571Y-118098976D01*
X93428571Y-118098976D02*
X93333333Y-118194214D01*
X93333333Y-118194214D02*
X93238095Y-118241833D01*
X94761904Y-118956119D02*
X94190476Y-118956119D01*
X94476190Y-118956119D02*
X94476190Y-117956119D01*
X94476190Y-117956119D02*
X94380952Y-118098976D01*
X94380952Y-118098976D02*
X94285714Y-118194214D01*
X94285714Y-118194214D02*
X94190476Y-118241833D01*
X182761905Y-118956119D02*
X182761905Y-117956119D01*
X182761905Y-117956119D02*
X183000000Y-117956119D01*
X183000000Y-117956119D02*
X183142857Y-118003738D01*
X183142857Y-118003738D02*
X183238095Y-118098976D01*
X183238095Y-118098976D02*
X183285714Y-118194214D01*
X183285714Y-118194214D02*
X183333333Y-118384690D01*
X183333333Y-118384690D02*
X183333333Y-118527547D01*
X183333333Y-118527547D02*
X183285714Y-118718023D01*
X183285714Y-118718023D02*
X183238095Y-118813261D01*
X183238095Y-118813261D02*
X183142857Y-118908500D01*
X183142857Y-118908500D02*
X183000000Y-118956119D01*
X183000000Y-118956119D02*
X182761905Y-118956119D01*
X183666667Y-117956119D02*
X184285714Y-117956119D01*
X184285714Y-117956119D02*
X183952381Y-118337071D01*
X183952381Y-118337071D02*
X184095238Y-118337071D01*
X184095238Y-118337071D02*
X184190476Y-118384690D01*
X184190476Y-118384690D02*
X184238095Y-118432309D01*
X184238095Y-118432309D02*
X184285714Y-118527547D01*
X184285714Y-118527547D02*
X184285714Y-118765642D01*
X184285714Y-118765642D02*
X184238095Y-118860880D01*
X184238095Y-118860880D02*
X184190476Y-118908500D01*
X184190476Y-118908500D02*
X184095238Y-118956119D01*
X184095238Y-118956119D02*
X183809524Y-118956119D01*
X183809524Y-118956119D02*
X183714286Y-118908500D01*
X183714286Y-118908500D02*
X183666667Y-118860880D01*
X98543880Y-126357142D02*
X99020071Y-126023809D01*
X98543880Y-125785714D02*
X99543880Y-125785714D01*
X99543880Y-125785714D02*
X99543880Y-126166666D01*
X99543880Y-126166666D02*
X99496261Y-126261904D01*
X99496261Y-126261904D02*
X99448642Y-126309523D01*
X99448642Y-126309523D02*
X99353404Y-126357142D01*
X99353404Y-126357142D02*
X99210547Y-126357142D01*
X99210547Y-126357142D02*
X99115309Y-126309523D01*
X99115309Y-126309523D02*
X99067690Y-126261904D01*
X99067690Y-126261904D02*
X99020071Y-126166666D01*
X99020071Y-126166666D02*
X99020071Y-125785714D01*
X99448642Y-126738095D02*
X99496261Y-126785714D01*
X99496261Y-126785714D02*
X99543880Y-126880952D01*
X99543880Y-126880952D02*
X99543880Y-127119047D01*
X99543880Y-127119047D02*
X99496261Y-127214285D01*
X99496261Y-127214285D02*
X99448642Y-127261904D01*
X99448642Y-127261904D02*
X99353404Y-127309523D01*
X99353404Y-127309523D02*
X99258166Y-127309523D01*
X99258166Y-127309523D02*
X99115309Y-127261904D01*
X99115309Y-127261904D02*
X98543880Y-126690476D01*
X98543880Y-126690476D02*
X98543880Y-127309523D01*
X99115309Y-127880952D02*
X99162928Y-127785714D01*
X99162928Y-127785714D02*
X99210547Y-127738095D01*
X99210547Y-127738095D02*
X99305785Y-127690476D01*
X99305785Y-127690476D02*
X99353404Y-127690476D01*
X99353404Y-127690476D02*
X99448642Y-127738095D01*
X99448642Y-127738095D02*
X99496261Y-127785714D01*
X99496261Y-127785714D02*
X99543880Y-127880952D01*
X99543880Y-127880952D02*
X99543880Y-128071428D01*
X99543880Y-128071428D02*
X99496261Y-128166666D01*
X99496261Y-128166666D02*
X99448642Y-128214285D01*
X99448642Y-128214285D02*
X99353404Y-128261904D01*
X99353404Y-128261904D02*
X99305785Y-128261904D01*
X99305785Y-128261904D02*
X99210547Y-128214285D01*
X99210547Y-128214285D02*
X99162928Y-128166666D01*
X99162928Y-128166666D02*
X99115309Y-128071428D01*
X99115309Y-128071428D02*
X99115309Y-127880952D01*
X99115309Y-127880952D02*
X99067690Y-127785714D01*
X99067690Y-127785714D02*
X99020071Y-127738095D01*
X99020071Y-127738095D02*
X98924833Y-127690476D01*
X98924833Y-127690476D02*
X98734357Y-127690476D01*
X98734357Y-127690476D02*
X98639119Y-127738095D01*
X98639119Y-127738095D02*
X98591500Y-127785714D01*
X98591500Y-127785714D02*
X98543880Y-127880952D01*
X98543880Y-127880952D02*
X98543880Y-128071428D01*
X98543880Y-128071428D02*
X98591500Y-128166666D01*
X98591500Y-128166666D02*
X98639119Y-128214285D01*
X98639119Y-128214285D02*
X98734357Y-128261904D01*
X98734357Y-128261904D02*
X98924833Y-128261904D01*
X98924833Y-128261904D02*
X99020071Y-128214285D01*
X99020071Y-128214285D02*
X99067690Y-128166666D01*
X99067690Y-128166666D02*
X99115309Y-128071428D01*
X161857142Y-115456119D02*
X161523809Y-114979928D01*
X161285714Y-115456119D02*
X161285714Y-114456119D01*
X161285714Y-114456119D02*
X161666666Y-114456119D01*
X161666666Y-114456119D02*
X161761904Y-114503738D01*
X161761904Y-114503738D02*
X161809523Y-114551357D01*
X161809523Y-114551357D02*
X161857142Y-114646595D01*
X161857142Y-114646595D02*
X161857142Y-114789452D01*
X161857142Y-114789452D02*
X161809523Y-114884690D01*
X161809523Y-114884690D02*
X161761904Y-114932309D01*
X161761904Y-114932309D02*
X161666666Y-114979928D01*
X161666666Y-114979928D02*
X161285714Y-114979928D01*
X162238095Y-114551357D02*
X162285714Y-114503738D01*
X162285714Y-114503738D02*
X162380952Y-114456119D01*
X162380952Y-114456119D02*
X162619047Y-114456119D01*
X162619047Y-114456119D02*
X162714285Y-114503738D01*
X162714285Y-114503738D02*
X162761904Y-114551357D01*
X162761904Y-114551357D02*
X162809523Y-114646595D01*
X162809523Y-114646595D02*
X162809523Y-114741833D01*
X162809523Y-114741833D02*
X162761904Y-114884690D01*
X162761904Y-114884690D02*
X162190476Y-115456119D01*
X162190476Y-115456119D02*
X162809523Y-115456119D01*
X163761904Y-115456119D02*
X163190476Y-115456119D01*
X163476190Y-115456119D02*
X163476190Y-114456119D01*
X163476190Y-114456119D02*
X163380952Y-114598976D01*
X163380952Y-114598976D02*
X163285714Y-114694214D01*
X163285714Y-114694214D02*
X163190476Y-114741833D01*
X188543880Y-126357142D02*
X189020071Y-126023809D01*
X188543880Y-125785714D02*
X189543880Y-125785714D01*
X189543880Y-125785714D02*
X189543880Y-126166666D01*
X189543880Y-126166666D02*
X189496261Y-126261904D01*
X189496261Y-126261904D02*
X189448642Y-126309523D01*
X189448642Y-126309523D02*
X189353404Y-126357142D01*
X189353404Y-126357142D02*
X189210547Y-126357142D01*
X189210547Y-126357142D02*
X189115309Y-126309523D01*
X189115309Y-126309523D02*
X189067690Y-126261904D01*
X189067690Y-126261904D02*
X189020071Y-126166666D01*
X189020071Y-126166666D02*
X189020071Y-125785714D01*
X189448642Y-126738095D02*
X189496261Y-126785714D01*
X189496261Y-126785714D02*
X189543880Y-126880952D01*
X189543880Y-126880952D02*
X189543880Y-127119047D01*
X189543880Y-127119047D02*
X189496261Y-127214285D01*
X189496261Y-127214285D02*
X189448642Y-127261904D01*
X189448642Y-127261904D02*
X189353404Y-127309523D01*
X189353404Y-127309523D02*
X189258166Y-127309523D01*
X189258166Y-127309523D02*
X189115309Y-127261904D01*
X189115309Y-127261904D02*
X188543880Y-126690476D01*
X188543880Y-126690476D02*
X188543880Y-127309523D01*
X189543880Y-127928571D02*
X189543880Y-128023809D01*
X189543880Y-128023809D02*
X189496261Y-128119047D01*
X189496261Y-128119047D02*
X189448642Y-128166666D01*
X189448642Y-128166666D02*
X189353404Y-128214285D01*
X189353404Y-128214285D02*
X189162928Y-128261904D01*
X189162928Y-128261904D02*
X188924833Y-128261904D01*
X188924833Y-128261904D02*
X188734357Y-128214285D01*
X188734357Y-128214285D02*
X188639119Y-128166666D01*
X188639119Y-128166666D02*
X188591500Y-128119047D01*
X188591500Y-128119047D02*
X188543880Y-128023809D01*
X188543880Y-128023809D02*
X188543880Y-127928571D01*
X188543880Y-127928571D02*
X188591500Y-127833333D01*
X188591500Y-127833333D02*
X188639119Y-127785714D01*
X188639119Y-127785714D02*
X188734357Y-127738095D01*
X188734357Y-127738095D02*
X188924833Y-127690476D01*
X188924833Y-127690476D02*
X189162928Y-127690476D01*
X189162928Y-127690476D02*
X189353404Y-127738095D01*
X189353404Y-127738095D02*
X189448642Y-127785714D01*
X189448642Y-127785714D02*
X189496261Y-127833333D01*
X189496261Y-127833333D02*
X189543880Y-127928571D01*
X116857142Y-115456119D02*
X116523809Y-114979928D01*
X116285714Y-115456119D02*
X116285714Y-114456119D01*
X116285714Y-114456119D02*
X116666666Y-114456119D01*
X116666666Y-114456119D02*
X116761904Y-114503738D01*
X116761904Y-114503738D02*
X116809523Y-114551357D01*
X116809523Y-114551357D02*
X116857142Y-114646595D01*
X116857142Y-114646595D02*
X116857142Y-114789452D01*
X116857142Y-114789452D02*
X116809523Y-114884690D01*
X116809523Y-114884690D02*
X116761904Y-114932309D01*
X116761904Y-114932309D02*
X116666666Y-114979928D01*
X116666666Y-114979928D02*
X116285714Y-114979928D01*
X117238095Y-114551357D02*
X117285714Y-114503738D01*
X117285714Y-114503738D02*
X117380952Y-114456119D01*
X117380952Y-114456119D02*
X117619047Y-114456119D01*
X117619047Y-114456119D02*
X117714285Y-114503738D01*
X117714285Y-114503738D02*
X117761904Y-114551357D01*
X117761904Y-114551357D02*
X117809523Y-114646595D01*
X117809523Y-114646595D02*
X117809523Y-114741833D01*
X117809523Y-114741833D02*
X117761904Y-114884690D01*
X117761904Y-114884690D02*
X117190476Y-115456119D01*
X117190476Y-115456119D02*
X117809523Y-115456119D01*
X118714285Y-114456119D02*
X118238095Y-114456119D01*
X118238095Y-114456119D02*
X118190476Y-114932309D01*
X118190476Y-114932309D02*
X118238095Y-114884690D01*
X118238095Y-114884690D02*
X118333333Y-114837071D01*
X118333333Y-114837071D02*
X118571428Y-114837071D01*
X118571428Y-114837071D02*
X118666666Y-114884690D01*
X118666666Y-114884690D02*
X118714285Y-114932309D01*
X118714285Y-114932309D02*
X118761904Y-115027547D01*
X118761904Y-115027547D02*
X118761904Y-115265642D01*
X118761904Y-115265642D02*
X118714285Y-115360880D01*
X118714285Y-115360880D02*
X118666666Y-115408500D01*
X118666666Y-115408500D02*
X118571428Y-115456119D01*
X118571428Y-115456119D02*
X118333333Y-115456119D01*
X118333333Y-115456119D02*
X118238095Y-115408500D01*
X118238095Y-115408500D02*
X118190476Y-115360880D01*
X110113880Y-131866666D02*
X109399595Y-131866666D01*
X109399595Y-131866666D02*
X109256738Y-131819047D01*
X109256738Y-131819047D02*
X109161500Y-131723809D01*
X109161500Y-131723809D02*
X109113880Y-131580952D01*
X109113880Y-131580952D02*
X109113880Y-131485714D01*
X110113880Y-132771428D02*
X110113880Y-132580952D01*
X110113880Y-132580952D02*
X110066261Y-132485714D01*
X110066261Y-132485714D02*
X110018642Y-132438095D01*
X110018642Y-132438095D02*
X109875785Y-132342857D01*
X109875785Y-132342857D02*
X109685309Y-132295238D01*
X109685309Y-132295238D02*
X109304357Y-132295238D01*
X109304357Y-132295238D02*
X109209119Y-132342857D01*
X109209119Y-132342857D02*
X109161500Y-132390476D01*
X109161500Y-132390476D02*
X109113880Y-132485714D01*
X109113880Y-132485714D02*
X109113880Y-132676190D01*
X109113880Y-132676190D02*
X109161500Y-132771428D01*
X109161500Y-132771428D02*
X109209119Y-132819047D01*
X109209119Y-132819047D02*
X109304357Y-132866666D01*
X109304357Y-132866666D02*
X109542452Y-132866666D01*
X109542452Y-132866666D02*
X109637690Y-132819047D01*
X109637690Y-132819047D02*
X109685309Y-132771428D01*
X109685309Y-132771428D02*
X109732928Y-132676190D01*
X109732928Y-132676190D02*
X109732928Y-132485714D01*
X109732928Y-132485714D02*
X109685309Y-132390476D01*
X109685309Y-132390476D02*
X109637690Y-132342857D01*
X109637690Y-132342857D02*
X109542452Y-132295238D01*
X154363880Y-104478095D02*
X153554357Y-104478095D01*
X153554357Y-104478095D02*
X153459119Y-104525714D01*
X153459119Y-104525714D02*
X153411500Y-104573333D01*
X153411500Y-104573333D02*
X153363880Y-104668571D01*
X153363880Y-104668571D02*
X153363880Y-104859047D01*
X153363880Y-104859047D02*
X153411500Y-104954285D01*
X153411500Y-104954285D02*
X153459119Y-105001904D01*
X153459119Y-105001904D02*
X153554357Y-105049523D01*
X153554357Y-105049523D02*
X154363880Y-105049523D01*
X153363880Y-106049523D02*
X153363880Y-105478095D01*
X153363880Y-105763809D02*
X154363880Y-105763809D01*
X154363880Y-105763809D02*
X154221023Y-105668571D01*
X154221023Y-105668571D02*
X154125785Y-105573333D01*
X154125785Y-105573333D02*
X154078166Y-105478095D01*
X94357142Y-115456119D02*
X94023809Y-114979928D01*
X93785714Y-115456119D02*
X93785714Y-114456119D01*
X93785714Y-114456119D02*
X94166666Y-114456119D01*
X94166666Y-114456119D02*
X94261904Y-114503738D01*
X94261904Y-114503738D02*
X94309523Y-114551357D01*
X94309523Y-114551357D02*
X94357142Y-114646595D01*
X94357142Y-114646595D02*
X94357142Y-114789452D01*
X94357142Y-114789452D02*
X94309523Y-114884690D01*
X94309523Y-114884690D02*
X94261904Y-114932309D01*
X94261904Y-114932309D02*
X94166666Y-114979928D01*
X94166666Y-114979928D02*
X93785714Y-114979928D01*
X94738095Y-114551357D02*
X94785714Y-114503738D01*
X94785714Y-114503738D02*
X94880952Y-114456119D01*
X94880952Y-114456119D02*
X95119047Y-114456119D01*
X95119047Y-114456119D02*
X95214285Y-114503738D01*
X95214285Y-114503738D02*
X95261904Y-114551357D01*
X95261904Y-114551357D02*
X95309523Y-114646595D01*
X95309523Y-114646595D02*
X95309523Y-114741833D01*
X95309523Y-114741833D02*
X95261904Y-114884690D01*
X95261904Y-114884690D02*
X94690476Y-115456119D01*
X94690476Y-115456119D02*
X95309523Y-115456119D01*
X95642857Y-114456119D02*
X96309523Y-114456119D01*
X96309523Y-114456119D02*
X95880952Y-115456119D01*
X177613880Y-131866666D02*
X176899595Y-131866666D01*
X176899595Y-131866666D02*
X176756738Y-131819047D01*
X176756738Y-131819047D02*
X176661500Y-131723809D01*
X176661500Y-131723809D02*
X176613880Y-131580952D01*
X176613880Y-131580952D02*
X176613880Y-131485714D01*
X177613880Y-132247619D02*
X177613880Y-132866666D01*
X177613880Y-132866666D02*
X177232928Y-132533333D01*
X177232928Y-132533333D02*
X177232928Y-132676190D01*
X177232928Y-132676190D02*
X177185309Y-132771428D01*
X177185309Y-132771428D02*
X177137690Y-132819047D01*
X177137690Y-132819047D02*
X177042452Y-132866666D01*
X177042452Y-132866666D02*
X176804357Y-132866666D01*
X176804357Y-132866666D02*
X176709119Y-132819047D01*
X176709119Y-132819047D02*
X176661500Y-132771428D01*
X176661500Y-132771428D02*
X176613880Y-132676190D01*
X176613880Y-132676190D02*
X176613880Y-132390476D01*
X176613880Y-132390476D02*
X176661500Y-132295238D01*
X176661500Y-132295238D02*
X176709119Y-132247619D01*
X192043880Y-126833333D02*
X192520071Y-126500000D01*
X192043880Y-126261905D02*
X193043880Y-126261905D01*
X193043880Y-126261905D02*
X193043880Y-126642857D01*
X193043880Y-126642857D02*
X192996261Y-126738095D01*
X192996261Y-126738095D02*
X192948642Y-126785714D01*
X192948642Y-126785714D02*
X192853404Y-126833333D01*
X192853404Y-126833333D02*
X192710547Y-126833333D01*
X192710547Y-126833333D02*
X192615309Y-126785714D01*
X192615309Y-126785714D02*
X192567690Y-126738095D01*
X192567690Y-126738095D02*
X192520071Y-126642857D01*
X192520071Y-126642857D02*
X192520071Y-126261905D01*
X192710547Y-127690476D02*
X192043880Y-127690476D01*
X193091500Y-127452381D02*
X192377214Y-127214286D01*
X192377214Y-127214286D02*
X192377214Y-127833333D01*
X222613880Y-131866666D02*
X221899595Y-131866666D01*
X221899595Y-131866666D02*
X221756738Y-131819047D01*
X221756738Y-131819047D02*
X221661500Y-131723809D01*
X221661500Y-131723809D02*
X221613880Y-131580952D01*
X221613880Y-131580952D02*
X221613880Y-131485714D01*
X221613880Y-132866666D02*
X221613880Y-132295238D01*
X221613880Y-132580952D02*
X222613880Y-132580952D01*
X222613880Y-132580952D02*
X222471023Y-132485714D01*
X222471023Y-132485714D02*
X222375785Y-132390476D01*
X222375785Y-132390476D02*
X222328166Y-132295238D01*
X128543880Y-116833333D02*
X129020071Y-116500000D01*
X128543880Y-116261905D02*
X129543880Y-116261905D01*
X129543880Y-116261905D02*
X129543880Y-116642857D01*
X129543880Y-116642857D02*
X129496261Y-116738095D01*
X129496261Y-116738095D02*
X129448642Y-116785714D01*
X129448642Y-116785714D02*
X129353404Y-116833333D01*
X129353404Y-116833333D02*
X129210547Y-116833333D01*
X129210547Y-116833333D02*
X129115309Y-116785714D01*
X129115309Y-116785714D02*
X129067690Y-116738095D01*
X129067690Y-116738095D02*
X129020071Y-116642857D01*
X129020071Y-116642857D02*
X129020071Y-116261905D01*
X128543880Y-117309524D02*
X128543880Y-117500000D01*
X128543880Y-117500000D02*
X128591500Y-117595238D01*
X128591500Y-117595238D02*
X128639119Y-117642857D01*
X128639119Y-117642857D02*
X128781976Y-117738095D01*
X128781976Y-117738095D02*
X128972452Y-117785714D01*
X128972452Y-117785714D02*
X129353404Y-117785714D01*
X129353404Y-117785714D02*
X129448642Y-117738095D01*
X129448642Y-117738095D02*
X129496261Y-117690476D01*
X129496261Y-117690476D02*
X129543880Y-117595238D01*
X129543880Y-117595238D02*
X129543880Y-117404762D01*
X129543880Y-117404762D02*
X129496261Y-117309524D01*
X129496261Y-117309524D02*
X129448642Y-117261905D01*
X129448642Y-117261905D02*
X129353404Y-117214286D01*
X129353404Y-117214286D02*
X129115309Y-117214286D01*
X129115309Y-117214286D02*
X129020071Y-117261905D01*
X129020071Y-117261905D02*
X128972452Y-117309524D01*
X128972452Y-117309524D02*
X128924833Y-117404762D01*
X128924833Y-117404762D02*
X128924833Y-117595238D01*
X128924833Y-117595238D02*
X128972452Y-117690476D01*
X128972452Y-117690476D02*
X129020071Y-117738095D01*
X129020071Y-117738095D02*
X129115309Y-117785714D01*
%TO.C,R26*%
D12*
X121500000Y-122960000D02*
X121500000Y-123730000D01*
X121500000Y-131040000D02*
X121500000Y-130270000D01*
X120130000Y-123730000D02*
X122870000Y-123730000D01*
X122870000Y-130270000D01*
X120130000Y-130270000D01*
X120130000Y-123730000D01*
%TO.C,3V3*%
X221050000Y-114050000D02*
X222950000Y-114050000D01*
X222950000Y-115950000D01*
X221050000Y-115950000D01*
X221050000Y-114050000D01*
D13*
X223450000Y-115000000D02*
G75*
G02*
X223250000Y-115000000I-100000J0D01*
G01*
X223250000Y-115000000D02*
G75*
G02*
X223450000Y-115000000I100000J0D01*
G01*
%TO.C,R18*%
D12*
X211500000Y-122960000D02*
X211500000Y-123730000D01*
X211500000Y-131040000D02*
X211500000Y-130270000D01*
X210130000Y-123730000D02*
X212870000Y-123730000D01*
X212870000Y-130270000D01*
X210130000Y-130270000D01*
X210130000Y-123730000D01*
%TO.C,R11*%
X106500000Y-112960000D02*
X106500000Y-113730000D01*
X106500000Y-121040000D02*
X106500000Y-120270000D01*
X105130000Y-113730000D02*
X107870000Y-113730000D01*
X107870000Y-120270000D01*
X105130000Y-120270000D01*
X105130000Y-113730000D01*
%TO.C,D16*%
X50500000Y-123039999D02*
X50500000Y-123689999D01*
X50500000Y-128579999D02*
X50500000Y-127930000D01*
X51620000Y-124289999D02*
X49380000Y-124289999D01*
X51620000Y-124410000D02*
X49380000Y-124410000D01*
X51620000Y-124529999D02*
X49380000Y-124529999D01*
X49380000Y-123689999D02*
X51620000Y-123689999D01*
X51620000Y-127930000D01*
X49380000Y-127930000D01*
X49380000Y-123689999D01*
%TO.C,D5*%
X158730001Y-118500000D02*
X159380000Y-118500000D01*
X162780001Y-119620000D02*
X162780001Y-117380000D01*
X162900000Y-119620000D02*
X162900000Y-117380000D01*
X163020001Y-119620000D02*
X163020001Y-117380000D01*
X164270001Y-118500000D02*
X163620001Y-118500000D01*
X159380000Y-117380000D02*
X163620001Y-117380000D01*
X163620001Y-119620000D01*
X159380000Y-119620000D01*
X159380000Y-117380000D01*
%TO.C,R19*%
X180960000Y-115000000D02*
X181730000Y-115000000D01*
X189040000Y-115000000D02*
X188270000Y-115000000D01*
X181730000Y-113630000D02*
X188270000Y-113630000D01*
X188270000Y-116370000D01*
X181730000Y-116370000D01*
X181730000Y-113630000D01*
%TO.C,D1*%
X203730001Y-118500000D02*
X204380000Y-118500000D01*
X207780001Y-119620001D02*
X207780001Y-117380000D01*
X207900000Y-119620001D02*
X207900000Y-117380000D01*
X208020001Y-119620001D02*
X208020001Y-117380000D01*
X209270001Y-118500000D02*
X208620001Y-118500000D01*
X204380000Y-117380000D02*
X208620001Y-117380000D01*
X208620001Y-119620001D01*
X204380000Y-119620001D01*
X204380000Y-117380000D01*
%TO.C,D4*%
X185500000Y-123039999D02*
X185500000Y-123689999D01*
X185500000Y-128579999D02*
X185500000Y-127930000D01*
X186620000Y-124289999D02*
X184380000Y-124289999D01*
X186620000Y-124410000D02*
X184380000Y-124410000D01*
X186620000Y-124529999D02*
X184380000Y-124529999D01*
X184380000Y-123689999D02*
X186620000Y-123689999D01*
X186620000Y-127930000D01*
X184380000Y-127930000D01*
X184380000Y-123689999D01*
%TO.C,D6*%
X163000000Y-123039999D02*
X163000000Y-123689999D01*
X163000000Y-128579999D02*
X163000000Y-127930000D01*
X164120000Y-124289999D02*
X161880001Y-124289999D01*
X164120000Y-124410000D02*
X161880001Y-124410000D01*
X164120000Y-124529999D02*
X161880001Y-124529999D01*
X161880001Y-123689999D02*
X164120000Y-123689999D01*
X164120000Y-127930000D01*
X161880001Y-127930000D01*
X161880001Y-123689999D01*
%TO.C,R14*%
X80000000Y-122960000D02*
X80000000Y-123730000D01*
X80000000Y-131040000D02*
X80000000Y-130270000D01*
X78630000Y-123730000D02*
X81370000Y-123730000D01*
X81370000Y-130270000D01*
X78630000Y-130270000D01*
X78630000Y-123730000D01*
%TO.C,R17*%
X203460000Y-115000000D02*
X204230000Y-115000000D01*
X211540000Y-115000000D02*
X210770000Y-115000000D01*
X204230000Y-113630000D02*
X210770000Y-113630000D01*
X210770000Y-116370000D01*
X204230000Y-116370000D01*
X204230000Y-113630000D01*
%TO.C,R30*%
X76500000Y-122960000D02*
X76500000Y-123730000D01*
X76500000Y-131040000D02*
X76500000Y-130270000D01*
X75130000Y-123730000D02*
X77870000Y-123730000D01*
X77870000Y-130270000D01*
X75130000Y-130270000D01*
X75130000Y-123730000D01*
%TO.C,J2*%
X179234999Y-121820000D02*
X183984999Y-121820000D01*
X179234999Y-124450000D02*
X179234999Y-121820000D01*
X179234999Y-130850000D02*
X179234999Y-127250000D01*
X179234999Y-137150000D02*
X179234999Y-133550000D01*
X179234999Y-142670000D02*
X179234999Y-139950000D01*
X179234999Y-142670000D02*
X182635000Y-142670000D01*
X182635000Y-142670000D02*
X182635000Y-145670000D01*
X182635000Y-145670000D02*
X194275000Y-145670000D01*
X183984999Y-118900000D02*
X183984999Y-121820000D01*
X184025000Y-118900000D02*
X192924999Y-118900000D01*
X192924999Y-118900000D02*
X192924999Y-121820000D01*
X192924999Y-121820000D02*
X197674999Y-121820000D01*
X194275000Y-142670000D02*
X194275000Y-145670000D01*
X194275000Y-142670000D02*
X197674999Y-142670000D01*
X197674999Y-121820000D02*
X197674999Y-124450000D01*
X197674999Y-127250000D02*
X197674999Y-130850000D01*
X197674999Y-133550000D02*
X197674999Y-137150000D01*
X197674999Y-142670000D02*
X197674999Y-139950000D01*
%TO.C,R6*%
X170000000Y-122960000D02*
X170000000Y-123730000D01*
X170000000Y-131040000D02*
X170000000Y-130270000D01*
X168630000Y-123730000D02*
X171370000Y-123730000D01*
X171370000Y-130270000D01*
X168630000Y-130270000D01*
X168630000Y-123730000D01*
%TO.C,R13*%
X84000000Y-112960000D02*
X84000000Y-113730000D01*
X84000000Y-121040000D02*
X84000000Y-120270000D01*
X82630000Y-113730000D02*
X85370000Y-113730000D01*
X85370000Y-120270000D01*
X82630000Y-120270000D01*
X82630000Y-113730000D01*
%TO.C,D7*%
X136230001Y-118500000D02*
X136880000Y-118500000D01*
X140280001Y-119619999D02*
X140280001Y-117380000D01*
X140400000Y-119619999D02*
X140400000Y-117380000D01*
X140520001Y-119619999D02*
X140520001Y-117380000D01*
X141770001Y-118500000D02*
X141120001Y-118500000D01*
X136880000Y-117380000D02*
X141120001Y-117380000D01*
X141120001Y-119619999D01*
X136880000Y-119619999D01*
X136880000Y-117380000D01*
%TO.C,R32*%
X54000000Y-122960000D02*
X54000000Y-123730000D01*
X54000000Y-131040000D02*
X54000000Y-130270000D01*
X52630000Y-123730000D02*
X55370000Y-123730000D01*
X55370000Y-130270000D01*
X52630000Y-130270000D01*
X52630000Y-123730000D01*
%TO.C,J9*%
X178620000Y-88620000D02*
X180000000Y-88620000D01*
X178620000Y-90000000D02*
X178620000Y-88620000D01*
X178620000Y-91270000D02*
X178620000Y-106620000D01*
X178620000Y-91270000D02*
X181379999Y-91270000D01*
X178620000Y-106620000D02*
X181379999Y-106620000D01*
X181379999Y-91270000D02*
X181379999Y-106620000D01*
%TO.C,R7*%
X151500000Y-112960000D02*
X151500000Y-113730000D01*
X151500000Y-121040000D02*
X151500000Y-120270000D01*
X150130000Y-113730000D02*
X152870000Y-113730000D01*
X152870000Y-120270000D01*
X150130000Y-120270000D01*
X150130000Y-113730000D01*
%TO.C,J7*%
X66735000Y-121820000D02*
X71485000Y-121820000D01*
X66735000Y-124450000D02*
X66735000Y-121820000D01*
X66735000Y-130850000D02*
X66735000Y-127250000D01*
X66735000Y-137150000D02*
X66735000Y-133550000D01*
X66735000Y-142670000D02*
X66735000Y-139950000D01*
X66735000Y-142670000D02*
X70135000Y-142670000D01*
X70135000Y-142670000D02*
X70135000Y-145670000D01*
X70135000Y-145670000D02*
X81774999Y-145670000D01*
X71485000Y-118900000D02*
X71485000Y-121820000D01*
X71524999Y-118900000D02*
X80425000Y-118900000D01*
X80425000Y-118900000D02*
X80425000Y-121820000D01*
X80425000Y-121820000D02*
X85175000Y-121820000D01*
X81774999Y-142670000D02*
X81774999Y-145670000D01*
X81774999Y-142670000D02*
X85175000Y-142670000D01*
X85175000Y-121820000D02*
X85175000Y-124450000D01*
X85175000Y-127250000D02*
X85175000Y-130850000D01*
X85175000Y-133550000D02*
X85175000Y-137150000D01*
X85175000Y-142670000D02*
X85175000Y-139950000D01*
%TO.C,R24*%
X144000000Y-122960000D02*
X144000000Y-123730000D01*
X144000000Y-131040000D02*
X144000000Y-130270000D01*
X142630000Y-123730000D02*
X145370000Y-123730000D01*
X145370000Y-130270000D01*
X142630000Y-130270000D01*
X142630000Y-123730000D01*
%TO.C,R8*%
X147500000Y-122960000D02*
X147500000Y-123730000D01*
X147500000Y-131040000D02*
X147500000Y-130270000D01*
X146130000Y-123730000D02*
X148870000Y-123730000D01*
X148870000Y-130270000D01*
X146130000Y-130270000D01*
X146130000Y-123730000D01*
%TO.C,R2*%
X215000000Y-122960000D02*
X215000000Y-123730000D01*
X215000000Y-131040000D02*
X215000000Y-130270000D01*
X213630000Y-123730000D02*
X216370000Y-123730000D01*
X216370000Y-130270000D01*
X213630000Y-130270000D01*
X213630000Y-123730000D01*
%TO.C,J5*%
X111735000Y-121820000D02*
X116485000Y-121820000D01*
X111735000Y-124450000D02*
X111735000Y-121820000D01*
X111735000Y-130850000D02*
X111735000Y-127250000D01*
X111735000Y-137150000D02*
X111735000Y-133550000D01*
X111735000Y-142670000D02*
X111735000Y-139950000D01*
X111735000Y-142670000D02*
X115135000Y-142670000D01*
X115135000Y-142670000D02*
X115135000Y-145670000D01*
X115135000Y-145670000D02*
X126775000Y-145670000D01*
X116485000Y-118900000D02*
X116485000Y-121820000D01*
X116525000Y-118900000D02*
X125425000Y-118900000D01*
X125425000Y-118900000D02*
X125425000Y-121820000D01*
X125425000Y-121820000D02*
X130175000Y-121820000D01*
X126775000Y-142670000D02*
X126775000Y-145670000D01*
X126775000Y-142670000D02*
X130175000Y-142670000D01*
X130175000Y-121820000D02*
X130175000Y-124450000D01*
X130175000Y-127250000D02*
X130175000Y-130850000D01*
X130175000Y-133550000D02*
X130175000Y-137150000D01*
X130175000Y-142670000D02*
X130175000Y-139950000D01*
%TO.C,R1*%
X219000000Y-112960000D02*
X219000000Y-113730000D01*
X219000000Y-121040000D02*
X219000000Y-120270000D01*
X217630000Y-113730000D02*
X220370000Y-113730000D01*
X220370000Y-120270000D01*
X217630000Y-120270000D01*
X217630000Y-113730000D01*
%TO.C,D15*%
X46230001Y-118500000D02*
X46880000Y-118500000D01*
X50280001Y-119620000D02*
X50280001Y-117380000D01*
X50400000Y-119620000D02*
X50400000Y-117380000D01*
X50520001Y-119620000D02*
X50520001Y-117380000D01*
X51770001Y-118500000D02*
X51120001Y-118500000D01*
X46880000Y-117380000D02*
X51120001Y-117380000D01*
X51120001Y-119620000D01*
X46880000Y-119620000D01*
X46880000Y-117380000D01*
%TO.C,U2*%
X121780000Y-88669999D02*
X121780000Y-91330000D01*
X139620001Y-88669999D02*
X121780000Y-88669999D01*
X139620001Y-88669999D02*
X139620001Y-91330000D01*
X139620001Y-91330000D02*
X121780000Y-91330000D01*
X142220000Y-90000000D02*
X142220000Y-91330000D01*
X142220000Y-91330000D02*
X140890000Y-91330000D01*
%TO.C,R16*%
X57500000Y-122960000D02*
X57500000Y-123730000D01*
X57500000Y-131040000D02*
X57500000Y-130270000D01*
X56130000Y-123730000D02*
X58870000Y-123730000D01*
X58870000Y-130270000D01*
X56130000Y-130270000D01*
X56130000Y-123730000D01*
%TO.C,R15*%
X61500000Y-112960000D02*
X61500000Y-113730000D01*
X61500000Y-121040000D02*
X61500000Y-120270000D01*
X60130000Y-113730000D02*
X62870000Y-113730000D01*
X62870000Y-120270000D01*
X60130000Y-120270000D01*
X60130000Y-113730000D01*
%TO.C,D8*%
X140500000Y-123039999D02*
X140500000Y-123689999D01*
X140500000Y-128579999D02*
X140500000Y-127930000D01*
X141620000Y-124289999D02*
X139380000Y-124289999D01*
X141620000Y-124410000D02*
X139380000Y-124410000D01*
X141620000Y-124529999D02*
X139380000Y-124529999D01*
X139380000Y-123689999D02*
X141620000Y-123689999D01*
X141620000Y-127930000D01*
X139380000Y-127930000D01*
X139380000Y-123689999D01*
%TO.C,D9*%
X113730001Y-118500000D02*
X114380000Y-118500000D01*
X117780001Y-119620000D02*
X117780001Y-117380000D01*
X117900000Y-119620000D02*
X117900000Y-117380000D01*
X118020001Y-119620000D02*
X118020001Y-117380000D01*
X119270001Y-118500000D02*
X118620001Y-118500000D01*
X114380000Y-117380000D02*
X118620001Y-117380000D01*
X118620001Y-119620000D01*
X114380000Y-119620000D01*
X114380000Y-117380000D01*
%TO.C,R23*%
X135960000Y-115000000D02*
X136730000Y-115000000D01*
X144040000Y-115000000D02*
X143270000Y-115000000D01*
X136730000Y-113630000D02*
X143270000Y-113630000D01*
X143270000Y-116370000D01*
X136730000Y-116370000D01*
X136730000Y-113630000D01*
%TO.C,R31*%
X45960000Y-115000000D02*
X46730000Y-115000000D01*
X54040000Y-115000000D02*
X53270000Y-115000000D01*
X46730000Y-113630000D02*
X53270000Y-113630000D01*
X53270000Y-116370000D01*
X46730000Y-116370000D01*
X46730000Y-113630000D01*
%TO.C,R3*%
X196500000Y-112960000D02*
X196500000Y-113730000D01*
X196500000Y-121040000D02*
X196500000Y-120270000D01*
X195130000Y-113730000D02*
X197870000Y-113730000D01*
X197870000Y-120270000D01*
X195130000Y-120270000D01*
X195130000Y-113730000D01*
%TO.C,D13*%
X68730001Y-118500000D02*
X69380000Y-118500000D01*
X72780001Y-119620000D02*
X72780001Y-117380000D01*
X72900000Y-119620000D02*
X72900000Y-117380000D01*
X73020001Y-119620000D02*
X73020001Y-117380000D01*
X74270001Y-118500000D02*
X73620001Y-118500000D01*
X69380000Y-117380000D02*
X73620001Y-117380000D01*
X73620001Y-119620000D01*
X69380000Y-119620000D01*
X69380000Y-117380000D01*
%TO.C,J8*%
X44235001Y-121820000D02*
X48985001Y-121820000D01*
X44235001Y-124450000D02*
X44235001Y-121820000D01*
X44235001Y-130850000D02*
X44235001Y-127250000D01*
X44235001Y-137150000D02*
X44235001Y-133550000D01*
X44235001Y-142670000D02*
X44235001Y-139950000D01*
X44235001Y-142670000D02*
X47635000Y-142670000D01*
X47635000Y-142670000D02*
X47635000Y-145670000D01*
X47635000Y-145670000D02*
X59275000Y-145670000D01*
X48985001Y-118900000D02*
X48985001Y-121820000D01*
X49025000Y-118900000D02*
X57925001Y-118900000D01*
X57925001Y-118900000D02*
X57925001Y-121820000D01*
X57925001Y-121820000D02*
X62675001Y-121820000D01*
X59275000Y-142670000D02*
X59275000Y-145670000D01*
X59275000Y-142670000D02*
X62675001Y-142670000D01*
X62675001Y-121820000D02*
X62675001Y-124450000D01*
X62675001Y-127250000D02*
X62675001Y-130850000D01*
X62675001Y-133550000D02*
X62675001Y-137150000D01*
X62675001Y-142670000D02*
X62675001Y-139950000D01*
%TO.C,R12*%
X102500000Y-122960000D02*
X102500000Y-123730000D01*
X102500000Y-131040000D02*
X102500000Y-130270000D01*
X101130000Y-123730000D02*
X103870000Y-123730000D01*
X103870000Y-130270000D01*
X101130000Y-130270000D01*
X101130000Y-123730000D01*
%TO.C,R5*%
X174000000Y-112960000D02*
X174000000Y-113730000D01*
X174000000Y-121040000D02*
X174000000Y-120270000D01*
X172630000Y-113730000D02*
X175370000Y-113730000D01*
X175370000Y-120270000D01*
X172630000Y-120270000D01*
X172630000Y-113730000D01*
%TO.C,D10*%
X118000000Y-123039999D02*
X118000000Y-123689999D01*
X118000000Y-128579999D02*
X118000000Y-127930000D01*
X119120001Y-124289999D02*
X116880000Y-124289999D01*
X119120001Y-124410000D02*
X116880000Y-124410000D01*
X119120001Y-124529999D02*
X116880000Y-124529999D01*
X116880000Y-123689999D02*
X119120001Y-123689999D01*
X119120001Y-127930000D01*
X116880000Y-127930000D01*
X116880000Y-123689999D01*
%TO.C,R10*%
X125000000Y-122960000D02*
X125000000Y-123730000D01*
X125000000Y-131040000D02*
X125000000Y-130270000D01*
X123630000Y-123730000D02*
X126370000Y-123730000D01*
X126370000Y-130270000D01*
X123630000Y-130270000D01*
X123630000Y-123730000D01*
%TO.C,D12*%
X95500000Y-123039999D02*
X95500000Y-123689999D01*
X95500000Y-128579999D02*
X95500000Y-127930000D01*
X96620000Y-124289999D02*
X94379999Y-124289999D01*
X96620000Y-124410000D02*
X94379999Y-124410000D01*
X96620000Y-124529999D02*
X94379999Y-124529999D01*
X94379999Y-123689999D02*
X96620000Y-123689999D01*
X96620000Y-127930000D01*
X94379999Y-127930000D01*
X94379999Y-123689999D01*
%TO.C,D14*%
X73000000Y-123039999D02*
X73000000Y-123689999D01*
X73000000Y-128579999D02*
X73000000Y-127930000D01*
X74120000Y-124289999D02*
X71880000Y-124289999D01*
X74120000Y-124410000D02*
X71880000Y-124410000D01*
X74120000Y-124529999D02*
X71880000Y-124529999D01*
X71880000Y-123689999D02*
X74120000Y-123689999D01*
X74120000Y-127930000D01*
X71880000Y-127930000D01*
X71880000Y-123689999D01*
%TO.C,R29*%
X68460000Y-115000000D02*
X69230000Y-115000000D01*
X76540000Y-115000000D02*
X75770000Y-115000000D01*
X69230000Y-113630000D02*
X75770000Y-113630000D01*
X75770000Y-116370000D01*
X69230000Y-116370000D01*
X69230000Y-113630000D01*
%TO.C,R22*%
X166500000Y-122960000D02*
X166500000Y-123730000D01*
X166500000Y-131040000D02*
X166500000Y-130270000D01*
X165130000Y-123730000D02*
X167870000Y-123730000D01*
X167870000Y-130270000D01*
X165130000Y-130270000D01*
X165130000Y-123730000D01*
%TO.C,J4*%
X134235000Y-121820000D02*
X138985000Y-121820000D01*
X134235000Y-124450000D02*
X134235000Y-121820000D01*
X134235000Y-130850000D02*
X134235000Y-127250000D01*
X134235000Y-137150000D02*
X134235000Y-133550000D01*
X134235000Y-142670000D02*
X134235000Y-139950000D01*
X134235000Y-142670000D02*
X137635000Y-142670000D01*
X137635000Y-142670000D02*
X137635000Y-145670000D01*
X137635000Y-145670000D02*
X149275000Y-145670000D01*
X138985000Y-118900000D02*
X138985000Y-121820000D01*
X139025000Y-118900000D02*
X147925000Y-118900000D01*
X147925000Y-118900000D02*
X147925000Y-121820000D01*
X147925000Y-121820000D02*
X152675000Y-121820000D01*
X149275000Y-142670000D02*
X149275000Y-145670000D01*
X149275000Y-142670000D02*
X152675000Y-142670000D01*
X152675000Y-121820000D02*
X152675000Y-124450000D01*
X152675000Y-127250000D02*
X152675000Y-130850000D01*
X152675000Y-133550000D02*
X152675000Y-137150000D01*
X152675000Y-142670000D02*
X152675000Y-139950000D01*
%TO.C,D2*%
X208000000Y-123039999D02*
X208000000Y-123689999D01*
X208000000Y-128579999D02*
X208000000Y-127930000D01*
X209120000Y-124289999D02*
X206880000Y-124289999D01*
X209120000Y-124410000D02*
X206880000Y-124410000D01*
X209120000Y-124529999D02*
X206880000Y-124529999D01*
X206880000Y-123689999D02*
X209120000Y-123689999D01*
X209120000Y-127930000D01*
X206880000Y-127930000D01*
X206880000Y-123689999D01*
%TO.C,D11*%
X91230001Y-118500000D02*
X91880000Y-118500000D01*
X95280001Y-119620000D02*
X95280001Y-117379999D01*
X95400000Y-119620000D02*
X95400000Y-117379999D01*
X95520001Y-119620000D02*
X95520001Y-117379999D01*
X96770001Y-118500000D02*
X96120001Y-118500000D01*
X91880000Y-117379999D02*
X96120001Y-117379999D01*
X96120001Y-119620000D01*
X91880000Y-119620000D01*
X91880000Y-117379999D01*
%TO.C,D3*%
X181230001Y-118500000D02*
X181880000Y-118500000D01*
X185280001Y-119620000D02*
X185280001Y-117380000D01*
X185400000Y-119620000D02*
X185400000Y-117380000D01*
X185520001Y-119620000D02*
X185520001Y-117380000D01*
X186770001Y-118500000D02*
X186120001Y-118500000D01*
X181880000Y-117380000D02*
X186120001Y-117380000D01*
X186120001Y-119620000D01*
X181880000Y-119620000D01*
X181880000Y-117380000D01*
%TO.C,R28*%
X99000000Y-122960000D02*
X99000000Y-123730000D01*
X99000000Y-131040000D02*
X99000000Y-130270000D01*
X97630000Y-123730000D02*
X100370000Y-123730000D01*
X100370000Y-130270000D01*
X97630000Y-130270000D01*
X97630000Y-123730000D01*
%TO.C,R21*%
X158460000Y-115000000D02*
X159230000Y-115000000D01*
X166540000Y-115000000D02*
X165770000Y-115000000D01*
X159230000Y-113630000D02*
X165770000Y-113630000D01*
X165770000Y-116370000D01*
X159230000Y-116370000D01*
X159230000Y-113630000D01*
%TO.C,R20*%
X189000000Y-122960000D02*
X189000000Y-123730000D01*
X189000000Y-131040000D02*
X189000000Y-130270000D01*
X187630000Y-123730000D02*
X190370000Y-123730000D01*
X190370000Y-130270000D01*
X187630000Y-130270000D01*
X187630000Y-123730000D01*
%TO.C,R25*%
X113460000Y-115000000D02*
X114230000Y-115000000D01*
X121540000Y-115000000D02*
X120770000Y-115000000D01*
X114230000Y-113630000D02*
X120770000Y-113630000D01*
X120770000Y-116370000D01*
X114230000Y-116370000D01*
X114230000Y-113630000D01*
%TO.C,J6*%
X89235000Y-121820000D02*
X93985000Y-121820000D01*
X89235000Y-124450000D02*
X89235000Y-121820000D01*
X89235000Y-130850000D02*
X89235000Y-127250000D01*
X89235000Y-137150000D02*
X89235000Y-133550000D01*
X89235000Y-142670000D02*
X89235000Y-139950000D01*
X89235000Y-142670000D02*
X92635000Y-142670000D01*
X92635000Y-142670000D02*
X92635000Y-145670000D01*
X92635000Y-145670000D02*
X104275000Y-145670000D01*
X93985000Y-118900000D02*
X93985000Y-121820000D01*
X94025000Y-118900000D02*
X102925000Y-118900000D01*
X102925000Y-118900000D02*
X102925000Y-121820000D01*
X102925000Y-121820000D02*
X107675000Y-121820000D01*
X104275000Y-142670000D02*
X104275000Y-145670000D01*
X104275000Y-142670000D02*
X107675000Y-142670000D01*
X107675000Y-121820000D02*
X107675000Y-124450000D01*
X107675000Y-127250000D02*
X107675000Y-130850000D01*
X107675000Y-133550000D02*
X107675000Y-137150000D01*
X107675000Y-142670000D02*
X107675000Y-139950000D01*
%TO.C,U1*%
X111620000Y-103909999D02*
X111620000Y-106570000D01*
X149780000Y-103909999D02*
X111620000Y-103909999D01*
X149780000Y-103909999D02*
X149780000Y-106570000D01*
X149780000Y-106570000D02*
X111620000Y-106570000D01*
X152380000Y-105240000D02*
X152380000Y-106570000D01*
X152380000Y-106570000D02*
X151050000Y-106570000D01*
%TO.C,R27*%
X90960000Y-115000000D02*
X91730000Y-115000000D01*
X99040000Y-115000000D02*
X98270000Y-115000000D01*
X91730000Y-113630000D02*
X98270000Y-113630000D01*
X98270000Y-116370000D01*
X91730000Y-116370000D01*
X91730000Y-113630000D01*
%TO.C,J3*%
X156735000Y-121820000D02*
X161485000Y-121820000D01*
X156735000Y-124450000D02*
X156735000Y-121820000D01*
X156735000Y-130850000D02*
X156735000Y-127250000D01*
X156735000Y-137150000D02*
X156735000Y-133550000D01*
X156735000Y-142670000D02*
X156735000Y-139950000D01*
X156735000Y-142670000D02*
X160135000Y-142670000D01*
X160135000Y-142670000D02*
X160135000Y-145670000D01*
X160135000Y-145670000D02*
X171775000Y-145670000D01*
X161485000Y-118900000D02*
X161485000Y-121820000D01*
X161525000Y-118900000D02*
X170425000Y-118900000D01*
X170425000Y-118900000D02*
X170425000Y-121820000D01*
X170425000Y-121820000D02*
X175175000Y-121820000D01*
X171775000Y-142670000D02*
X171775000Y-145670000D01*
X171775000Y-142670000D02*
X175175000Y-142670000D01*
X175175000Y-121820000D02*
X175175000Y-124450000D01*
X175175000Y-127250000D02*
X175175000Y-130850000D01*
X175175000Y-133550000D02*
X175175000Y-137150000D01*
X175175000Y-142670000D02*
X175175000Y-139950000D01*
%TO.C,R4*%
X192500000Y-122960000D02*
X192500000Y-123730000D01*
X192500000Y-131040000D02*
X192500000Y-130270000D01*
X191130000Y-123730000D02*
X193870000Y-123730000D01*
X193870000Y-130270000D01*
X191130000Y-130270000D01*
X191130000Y-123730000D01*
%TO.C,J1*%
X201735000Y-121820000D02*
X206485000Y-121820000D01*
X201735000Y-124450000D02*
X201735000Y-121820000D01*
X201735000Y-130850000D02*
X201735000Y-127250000D01*
X201735000Y-137150000D02*
X201735000Y-133550000D01*
X201735000Y-142670000D02*
X201735000Y-139950000D01*
X201735000Y-142670000D02*
X205135000Y-142670000D01*
X205135000Y-142670000D02*
X205135000Y-145670000D01*
X205135000Y-145670000D02*
X216775001Y-145670000D01*
X206485000Y-118900000D02*
X206485000Y-121820000D01*
X206525001Y-118900000D02*
X215425000Y-118900000D01*
X215425000Y-118900000D02*
X215425000Y-121820000D01*
X215425000Y-121820000D02*
X220175000Y-121820000D01*
X216775001Y-142670000D02*
X216775001Y-145670000D01*
X216775001Y-142670000D02*
X220175000Y-142670000D01*
X220175000Y-121820000D02*
X220175000Y-124450000D01*
X220175000Y-127250000D02*
X220175000Y-130850000D01*
X220175000Y-133550000D02*
X220175000Y-137150000D01*
X220175000Y-142670000D02*
X220175000Y-139950000D01*
%TO.C,R9*%
X129000000Y-112960000D02*
X129000000Y-113730000D01*
X129000000Y-121040000D02*
X129000000Y-120270000D01*
X127630000Y-113730000D02*
X130370000Y-113730000D01*
X130370000Y-120270000D01*
X127630000Y-120270000D01*
X127630000Y-113730000D01*
%TD*%
M02*
