M48
; DRILL file KiCad 10.0.5 date 2026-09-05T15:06:50
; FORMAT={-:-/ absolute / metric / decimal}
; #@! TF.CreationDate,2026-09-05T15:06:50-03:00
; #@! TF.GenerationSoftware,Kicad,Pcbnew,10.0.5
; #@! TF.FileFunction,Plated,1,2,PTH
FMAT,2
METRIC
; #@! TA.AperFunction,Plated,PTH,ComponentDrill
T1C0.800
; #@! TA.AperFunction,Plated,PTH,ComponentDrill
T2C1.000
; #@! TA.AperFunction,Plated,PTH,ComponentDrill
T3C1.400
%
G90
G05
T1
X44.92Y-115.0
X45.19Y-118.5
X50.5Y-122.0
X50.5Y-129.62
X52.81Y-118.5
X54.0Y-121.92
X54.0Y-132.08
X55.08Y-115.0
X57.5Y-121.92
X57.5Y-132.08
X61.5Y-111.92
X61.5Y-122.08
X67.42Y-115.0
X67.69Y-118.5
X73.0Y-122.0
X73.0Y-129.62
X75.31Y-118.5
X76.5Y-121.92
X76.5Y-132.08
X77.58Y-115.0
X80.0Y-121.92
X80.0Y-132.08
X84.0Y-111.92
X84.0Y-122.08
X89.92Y-115.0
X90.19Y-118.5
X95.5Y-122.0
X95.5Y-129.62
X97.81Y-118.5
X99.0Y-121.92
X99.0Y-132.08
X100.08Y-115.0
X102.5Y-121.92
X102.5Y-132.08
X106.5Y-111.92
X106.5Y-122.08
X112.42Y-115.0
X112.69Y-118.5
X118.0Y-122.0
X118.0Y-129.62
X120.31Y-118.5
X121.5Y-121.92
X121.5Y-132.08
X122.58Y-115.0
X125.0Y-121.92
X125.0Y-132.08
X129.0Y-111.92
X129.0Y-122.08
X134.92Y-115.0
X135.19Y-118.5
X140.5Y-122.0
X140.5Y-129.62
X142.81Y-118.5
X144.0Y-121.92
X144.0Y-132.08
X145.08Y-115.0
X147.5Y-121.92
X147.5Y-132.08
X151.5Y-111.92
X151.5Y-122.08
X157.42Y-115.0
X157.69Y-118.5
X163.0Y-122.0
X163.0Y-129.62
X165.31Y-118.5
X166.5Y-121.92
X166.5Y-132.08
X167.58Y-115.0
X170.0Y-121.92
X170.0Y-132.08
X174.0Y-111.92
X174.0Y-122.08
X179.92Y-115.0
X180.19Y-118.5
X185.5Y-122.0
X185.5Y-129.62
X187.81Y-118.5
X189.0Y-121.92
X189.0Y-132.08
X190.08Y-115.0
X192.5Y-121.92
X192.5Y-132.08
X196.5Y-111.92
X196.5Y-122.08
X202.42Y-115.0
X202.69Y-118.5
X208.0Y-122.0
X208.0Y-129.62
X210.31Y-118.5
X211.5Y-121.92
X211.5Y-132.08
X212.58Y-115.0
X215.0Y-121.92
X215.0Y-132.08
X219.0Y-111.92
X219.0Y-122.08
X222.0Y-115.0
T2
X112.95Y-105.24
X115.49Y-105.24
X118.03Y-105.24
X120.57Y-105.24
X123.11Y-90.0
X123.11Y-105.24
X125.65Y-105.24
X125.65Y-90.0
X128.19Y-90.0
X128.19Y-105.24
X130.73Y-105.24
X130.73Y-90.0
X133.27Y-90.0
X133.27Y-105.24
X135.81Y-90.0
X135.81Y-105.24
X138.35Y-90.0
X138.35Y-105.24
X140.89Y-90.0
X140.89Y-105.24
X143.43Y-105.24
X145.97Y-105.24
X148.51Y-105.24
X151.05Y-105.24
X180.0Y-90.0
X180.0Y-92.54
X180.0Y-95.08
X180.0Y-97.62
X180.0Y-100.16
X180.0Y-102.7
X180.0Y-105.24
T3
X45.34Y-125.85
X45.34Y-132.2
X45.34Y-138.55
X61.57Y-125.85
X61.57Y-132.2
X61.57Y-138.55
X67.84Y-125.85
X67.84Y-132.2
X67.84Y-138.55
X84.07Y-125.85
X84.07Y-132.2
X84.07Y-138.55
X90.34Y-125.85
X90.34Y-132.2
X90.34Y-138.55
X106.57Y-125.85
X106.57Y-132.2
X106.57Y-138.55
X112.84Y-125.85
X112.84Y-132.2
X112.84Y-138.55
X129.07Y-125.85
X129.07Y-132.2
X129.07Y-138.55
X135.34Y-125.85
X135.34Y-132.2
X135.34Y-138.55
X151.57Y-125.85
X151.57Y-132.2
X151.57Y-138.55
X157.84Y-125.85
X157.84Y-132.2
X157.84Y-138.55
X174.07Y-125.85
X174.07Y-132.2
X174.07Y-138.55
X180.34Y-125.85
X180.34Y-132.2
X180.34Y-138.55
X196.57Y-125.85
X196.57Y-132.2
X196.57Y-138.55
X202.84Y-125.85
X202.84Y-132.2
X202.84Y-138.55
X219.07Y-125.85
X219.07Y-132.2
X219.07Y-138.55
M30
