<?xml version="1.0" encoding="UTF-8"?>
<svg xmlns="http://www.w3.org/2000/svg" width="3.0in" height="1.9in" viewBox="0 0 300 190">
<g id="schematic">
<rect x="30" y="5" width="240" height="180" fill="#fff" stroke="#000" stroke-width="1"/>
<text x="150.0" y="91.0" font-family="'Droid Sans', Arial, sans-serif" font-size="9" text-anchor="middle" fill="#000">DrumCore</text>
<text x="150.0" y="102.0" font-family="'Droid Sans', Arial, sans-serif" font-size="9" text-anchor="middle" fill="#000">Jackboard</text>
<text x="150.0" y="112.0" font-family="'Droid Sans', Arial, sans-serif" font-size="6" text-anchor="middle" fill="#555">16 canais</text>
<line id="connector0pin" x1="0" y1="20" x2="30" y2="20" stroke="#000" stroke-width="1"/>
<rect id="connector0terminal" x="0" y="19.5" width="1" height="1" fill="none"/>
<text x="33" y="22.5" font-family="'Droid Sans', Arial, sans-serif" font-size="7" fill="#000">GND</text>
<line id="connector1pin" x1="0" y1="30" x2="30" y2="30" stroke="#000" stroke-width="1"/>
<rect id="connector1terminal" x="0" y="29.5" width="1" height="1" fill="none"/>
<text x="33" y="32.5" font-family="'Droid Sans', Arial, sans-serif" font-size="7" fill="#000">VCC</text>
<line id="connector2pin" x1="0" y1="40" x2="30" y2="40" stroke="#000" stroke-width="1"/>
<rect id="connector2terminal" x="0" y="39.5" width="1" height="1" fill="none"/>
<text x="33" y="42.5" font-family="'Droid Sans', Arial, sans-serif" font-size="7" fill="#000">EN</text>
<line id="connector3pin" x1="0" y1="50" x2="30" y2="50" stroke="#000" stroke-width="1"/>
<rect id="connector3terminal" x="0" y="49.5" width="1" height="1" fill="none"/>
<text x="33" y="52.5" font-family="'Droid Sans', Arial, sans-serif" font-size="7" fill="#000">S0</text>
<line id="connector4pin" x1="0" y1="60" x2="30" y2="60" stroke="#000" stroke-width="1"/>
<rect id="connector4terminal" x="0" y="59.5" width="1" height="1" fill="none"/>
<text x="33" y="62.5" font-family="'Droid Sans', Arial, sans-serif" font-size="7" fill="#000">S1</text>
<line id="connector5pin" x1="0" y1="70" x2="30" y2="70" stroke="#000" stroke-width="1"/>
<rect id="connector5terminal" x="0" y="69.5" width="1" height="1" fill="none"/>
<text x="33" y="72.5" font-family="'Droid Sans', Arial, sans-serif" font-size="7" fill="#000">S2</text>
<line id="connector6pin" x1="0" y1="80" x2="30" y2="80" stroke="#000" stroke-width="1"/>
<rect id="connector6terminal" x="0" y="79.5" width="1" height="1" fill="none"/>
<text x="33" y="82.5" font-family="'Droid Sans', Arial, sans-serif" font-size="7" fill="#000">S3</text>
<line id="connector7pin" x1="0" y1="90" x2="30" y2="90" stroke="#000" stroke-width="1"/>
<rect id="connector7terminal" x="0" y="89.5" width="1" height="1" fill="none"/>
<text x="33" y="92.5" font-family="'Droid Sans', Arial, sans-serif" font-size="7" fill="#000">SIG</text>
<line id="connector8pin" x1="270" y1="20" x2="300" y2="20" stroke="#000" stroke-width="1"/>
<rect id="connector8terminal" x="299" y="19.5" width="1" height="1" fill="none"/>
<text x="267" y="22.5" font-family="'Droid Sans', Arial, sans-serif" font-size="7" fill="#000" text-anchor="end">J1 tip</text>
<line id="connector9pin" x1="270" y1="30" x2="300" y2="30" stroke="#000" stroke-width="1"/>
<rect id="connector9terminal" x="299" y="29.5" width="1" height="1" fill="none"/>
<text x="267" y="32.5" font-family="'Droid Sans', Arial, sans-serif" font-size="7" fill="#000" text-anchor="end">J1 ring</text>
<line id="connector10pin" x1="270" y1="40" x2="300" y2="40" stroke="#000" stroke-width="1"/>
<rect id="connector10terminal" x="299" y="39.5" width="1" height="1" fill="none"/>
<text x="267" y="42.5" font-family="'Droid Sans', Arial, sans-serif" font-size="7" fill="#000" text-anchor="end">J2 tip</text>
<line id="connector11pin" x1="270" y1="50" x2="300" y2="50" stroke="#000" stroke-width="1"/>
<rect id="connector11terminal" x="299" y="49.5" width="1" height="1" fill="none"/>
<text x="267" y="52.5" font-family="'Droid Sans', Arial, sans-serif" font-size="7" fill="#000" text-anchor="end">J2 ring</text>
<line id="connector12pin" x1="270" y1="60" x2="300" y2="60" stroke="#000" stroke-width="1"/>
<rect id="connector12terminal" x="299" y="59.5" width="1" height="1" fill="none"/>
<text x="267" y="62.5" font-family="'Droid Sans', Arial, sans-serif" font-size="7" fill="#000" text-anchor="end">J3 tip</text>
<line id="connector13pin" x1="270" y1="70" x2="300" y2="70" stroke="#000" stroke-width="1"/>
<rect id="connector13terminal" x="299" y="69.5" width="1" height="1" fill="none"/>
<text x="267" y="72.5" font-family="'Droid Sans', Arial, sans-serif" font-size="7" fill="#000" text-anchor="end">J3 ring</text>
<line id="connector14pin" x1="270" y1="80" x2="300" y2="80" stroke="#000" stroke-width="1"/>
<rect id="connector14terminal" x="299" y="79.5" width="1" height="1" fill="none"/>
<text x="267" y="82.5" font-family="'Droid Sans', Arial, sans-serif" font-size="7" fill="#000" text-anchor="end">J4 tip</text>
<line id="connector15pin" x1="270" y1="90" x2="300" y2="90" stroke="#000" stroke-width="1"/>
<rect id="connector15terminal" x="299" y="89.5" width="1" height="1" fill="none"/>
<text x="267" y="92.5" font-family="'Droid Sans', Arial, sans-serif" font-size="7" fill="#000" text-anchor="end">J4 ring</text>
<line id="connector16pin" x1="270" y1="100" x2="300" y2="100" stroke="#000" stroke-width="1"/>
<rect id="connector16terminal" x="299" y="99.5" width="1" height="1" fill="none"/>
<text x="267" y="102.5" font-family="'Droid Sans', Arial, sans-serif" font-size="7" fill="#000" text-anchor="end">J5 tip</text>
<line id="connector17pin" x1="270" y1="110" x2="300" y2="110" stroke="#000" stroke-width="1"/>
<rect id="connector17terminal" x="299" y="109.5" width="1" height="1" fill="none"/>
<text x="267" y="112.5" font-family="'Droid Sans', Arial, sans-serif" font-size="7" fill="#000" text-anchor="end">J5 ring</text>
<line id="connector18pin" x1="270" y1="120" x2="300" y2="120" stroke="#000" stroke-width="1"/>
<rect id="connector18terminal" x="299" y="119.5" width="1" height="1" fill="none"/>
<text x="267" y="122.5" font-family="'Droid Sans', Arial, sans-serif" font-size="7" fill="#000" text-anchor="end">J6 tip</text>
<line id="connector19pin" x1="270" y1="130" x2="300" y2="130" stroke="#000" stroke-width="1"/>
<rect id="connector19terminal" x="299" y="129.5" width="1" height="1" fill="none"/>
<text x="267" y="132.5" font-family="'Droid Sans', Arial, sans-serif" font-size="7" fill="#000" text-anchor="end">J6 ring</text>
<line id="connector20pin" x1="270" y1="140" x2="300" y2="140" stroke="#000" stroke-width="1"/>
<rect id="connector20terminal" x="299" y="139.5" width="1" height="1" fill="none"/>
<text x="267" y="142.5" font-family="'Droid Sans', Arial, sans-serif" font-size="7" fill="#000" text-anchor="end">J7 tip</text>
<line id="connector21pin" x1="270" y1="150" x2="300" y2="150" stroke="#000" stroke-width="1"/>
<rect id="connector21terminal" x="299" y="149.5" width="1" height="1" fill="none"/>
<text x="267" y="152.5" font-family="'Droid Sans', Arial, sans-serif" font-size="7" fill="#000" text-anchor="end">J7 ring</text>
<line id="connector22pin" x1="270" y1="160" x2="300" y2="160" stroke="#000" stroke-width="1"/>
<rect id="connector22terminal" x="299" y="159.5" width="1" height="1" fill="none"/>
<text x="267" y="162.5" font-family="'Droid Sans', Arial, sans-serif" font-size="7" fill="#000" text-anchor="end">J8 tip</text>
<line id="connector23pin" x1="270" y1="170" x2="300" y2="170" stroke="#000" stroke-width="1"/>
<rect id="connector23terminal" x="299" y="169.5" width="1" height="1" fill="none"/>
<text x="267" y="172.5" font-family="'Droid Sans', Arial, sans-serif" font-size="7" fill="#000" text-anchor="end">J8 ring</text>
</g>
</svg>